<?xml version="1.0" standalone="no"?>
<!DOCTYPE svg PUBLIC "-//W3C//DTD SVG 20010904//EN"
 "http://www.w3.org/TR/2001/REC-SVG-20010904/DTD/svg10.dtd">
<svg version="1.0" xmlns="http://www.w3.org/2000/svg"
 width="512.000000pt" height="512.000000pt" viewBox="0 0 512.000000 512.000000"
 preserveAspectRatio="xMidYMid meet">
<metadata>
Created by potrace 1.14, written by Peter Selinger 2001-2017
</metadata>
<g transform="translate(0.000000,512.000000) scale(0.100000,-0.100000)"
fill="#000000" stroke="none">
<path d="M3014 5062 c-26 -17 -53 -102 -32 -102 5 0 7 -4 3 -10 -5 -8 23 -50
35 -50 15 0 57 47 54 62 -1 10 2 21 8 24 5 3 2 14 -8 25 -9 10 -13 19 -9 19 4
0 -2 9 -15 20 -13 11 -23 20 -24 20 -1 0 -6 -4 -12 -8z"/>
<path d="M2350 4988 c0 -4 -3 -7 -7 -7 -20 3 -34 -2 -29 -10 3 -5 -1 -12 -10
-15 -8 -3 -12 -10 -9 -16 3 -5 1 -10 -4 -10 -14 0 -3 -73 13 -82 20 -13 42 -9
61 12 28 31 36 90 15 115 -5 6 -8 14 -5 17 3 2 -2 5 -10 5 -8 0 -15 -4 -15 -9z"/>
<path d="M2545 4935 c-34 -35 -40 -73 -16 -93 9 -7 12 -11 6 -10 -5 1 -20 -3
-33 -10 -12 -7 -27 -10 -32 -7 -6 4 -9 1 -8 -7 2 -7 -3 -12 -10 -10 -8 1 -11
-2 -8 -7 4 -5 -1 -16 -9 -25 -9 -8 -15 -18 -15 -21 3 -14 -12 -65 -20 -65 -4
0 -13 15 -21 33 -16 42 -16 42 -33 28 -11 -9 -16 -9 -22 0 -4 7 -3 9 4 5 15
-9 27 13 14 26 -6 6 -8 18 -5 27 4 13 3 13 -5 2 -11 -16 -32 -7 -32 14 0 8 -6
12 -14 9 -7 -3 -16 2 -20 11 -4 12 -10 14 -25 5 -13 -7 -22 -7 -26 0 -9 14
-32 -10 -32 -33 0 -9 4 -17 9 -17 5 0 7 -4 3 -9 -3 -5 4 -16 15 -24 11 -7 18
-16 16 -18 -3 -2 6 -9 20 -16 16 -7 24 -8 24 -1 0 7 5 6 14 -1 8 -7 17 -8 20
-3 3 5 17 10 30 10 18 0 23 -5 19 -16 -5 -11 -3 -13 7 -7 8 5 11 3 8 -6 -3 -8
3 -25 14 -38 10 -13 17 -26 15 -27 -5 -5 -57 20 -57 27 0 10 -66 2 -98 -12
-20 -9 -32 -21 -32 -33 0 -11 2 -17 5 -14 3 3 16 -4 29 -15 23 -21 86 -31 86
-15 0 5 4 7 9 3 5 -3 12 -1 16 5 4 6 11 8 16 5 8 -6 13 8 10 28 0 4 5 7 13 7
14 0 15 -28 1 -49 -3 -5 -1 -12 5 -16 6 -4 8 -10 5 -15 -3 -5 -7 -29 -9 -53
-2 -24 -10 -54 -19 -68 -9 -13 -17 -28 -17 -34 -1 -5 -4 -12 -7 -15 -4 -3 -3
2 1 10 4 8 -2 4 -13 -10 -11 -14 -21 -29 -21 -33 0 -5 -4 -5 -10 -2 -5 3 -10
2 -10 -4 0 -13 -29 -41 -42 -41 -5 0 -8 6 -5 14 3 7 -1 26 -9 41 -8 15 -14 33
-14 40 0 7 -7 18 -15 25 -8 7 -12 17 -8 23 3 6 1 7 -5 3 -7 -4 -12 -1 -12 8 0
8 -10 22 -22 30 -12 9 -19 16 -14 16 4 0 -2 9 -15 21 -13 11 -19 18 -12 15 7
-4 9 1 6 12 -3 13 4 22 22 30 14 7 23 17 20 22 -3 6 0 10 7 10 15 0 16 37 4
86 -6 22 -11 25 -34 19 -15 -4 -30 -11 -33 -17 -4 -6 -11 -8 -16 -5 -10 6 -15
-17 -16 -75 -1 -35 -2 -36 -18 -20 -9 9 -16 19 -16 22 1 3 -4 15 -11 28 -8 13
-9 22 -3 22 6 0 26 14 45 30 30 27 33 35 30 72 -5 53 -20 71 -45 57 -10 -5
-19 -6 -19 -2 0 4 -11 -10 -25 -31 -13 -22 -22 -43 -19 -48 3 -4 1 -8 -5 -8
-5 0 -12 6 -14 13 -4 9 -6 9 -6 -1 -1 -7 7 -16 16 -19 14 -6 15 -7 1 -12 -13
-5 -12 -14 10 -61 15 -30 30 -56 34 -58 4 -2 8 -9 8 -16 0 -7 11 -25 25 -40
14 -15 25 -29 25 -32 0 -2 14 -19 31 -37 17 -17 40 -49 51 -70 l19 -39 -23 7
c-13 4 -26 13 -30 19 -4 6 -8 7 -8 2 0 -5 -6 -3 -13 3 -8 6 -17 8 -20 4 -4 -3
-7 -1 -7 5 0 7 -5 11 -12 10 -6 -2 -12 10 -13 28 -1 34 -32 87 -55 92 -8 2
-26 5 -40 7 -14 1 -25 8 -25 16 0 8 5 13 12 12 10 -2 30 36 21 40 -1 1 -17 10
-34 19 -33 18 -106 17 -112 -2 -3 -8 -8 -8 -17 0 -10 8 -15 8 -21 -1 -4 -8 -3
-9 4 -5 8 5 10 2 6 -8 -9 -24 -27 -7 -21 20 2 13 0 24 -5 24 -5 0 -6 10 -3 21
5 13 3 19 -3 15 -5 -3 -12 1 -16 9 -3 8 -12 15 -20 15 -8 0 -16 5 -18 11 -2 5
-11 7 -21 4 -9 -4 -15 -11 -12 -15 3 -5 1 -11 -5 -15 -6 -4 -8 -10 -5 -15 3
-5 1 -11 -4 -14 -5 -4 -5 -20 2 -41 5 -19 15 -31 20 -28 6 4 8 0 4 -10 -4 -11
-2 -14 7 -11 8 3 17 0 21 -5 3 -6 10 -9 15 -6 4 3 10 -2 14 -10 3 -8 1 -15 -4
-15 -5 0 -12 -10 -16 -22 -4 -13 -14 -28 -23 -35 -14 -11 -14 -12 2 -13 11 0
21 9 24 20 3 11 9 20 14 20 5 0 9 6 9 13 0 8 9 24 20 37 15 18 21 19 25 8 3
-7 15 -15 27 -15 12 -1 24 -7 28 -14 6 -8 9 -8 15 0 5 9 10 9 20 1 9 -8 15 -8
20 0 3 6 11 8 16 4 6 -3 6 -10 1 -17 -5 -7 -8 -19 -7 -27 3 -20 43 -86 50 -82
13 6 22 1 22 -13 0 -11 -4 -12 -14 -3 -11 8 -12 7 -7 -6 4 -9 3 -16 -2 -15
-23 4 -45 -2 -39 -11 3 -5 2 -10 -3 -10 -11 0 -28 -39 -28 -62 1 -10 5 -17 10
-17 5 0 13 -5 17 -13 5 -7 9 -8 9 -2 0 6 6 11 14 11 19 0 78 25 72 31 -3 2 1
11 9 19 8 8 15 23 15 33 0 10 9 20 20 23 11 3 20 1 20 -4 0 -5 8 -9 18 -9 10
0 28 -9 40 -20 26 -24 29 -35 6 -22 -26 14 -91 -6 -97 -30 -3 -11 -9 -18 -14
-15 -5 3 -8 -11 -8 -31 0 -31 3 -36 29 -39 18 -3 36 3 49 14 11 10 17 12 13 6
-10 -18 2 -16 20 2 9 8 12 15 8 15 -4 0 0 8 9 18 10 10 14 22 10 25 -3 4 -1 7
6 7 7 0 9 5 6 10 -3 6 -1 10 4 10 11 0 14 -26 13 -102 -2 -61 -8 -113 -15
-124 -3 -6 -4 -22 -3 -37 2 -15 0 -27 -5 -27 -4 0 -4 -12 0 -27 4 -16 7 -43 6
-60 0 -18 2 -33 6 -33 4 0 7 -9 6 -20 -1 -11 -3 -20 -4 -20 -2 0 -20 16 -40
35 -20 19 -40 35 -44 35 -4 0 -14 6 -21 13 -15 15 -103 57 -118 57 -5 0 -10 4
-10 10 0 5 -3 9 -7 8 -12 -3 -93 25 -93 31 0 4 -8 7 -17 8 -44 3 -63 8 -63 16
0 4 -4 5 -10 2 -5 -3 -10 -2 -10 4 0 5 -8 8 -17 7 -10 -2 -24 3 -31 11 -8 7
-18 10 -24 7 -6 -4 -8 -2 -5 3 4 6 -3 19 -15 29 -24 22 -80 133 -72 145 2 5
11 6 19 3 8 -4 12 -11 8 -17 -3 -5 -2 -8 3 -5 5 3 20 1 34 -5 33 -13 73 -17
85 -7 6 5 13 9 18 9 4 1 16 6 26 13 36 22 -2 59 -74 72 -14 3 -25 0 -25 -5 0
-6 -4 -8 -9 -5 -11 7 -42 -4 -37 -13 2 -3 -2 -12 -10 -18 -7 -7 -15 -9 -18 -5
-6 10 39 83 47 75 4 -3 7 -1 7 5 0 6 12 25 28 43 19 23 22 31 10 26 -19 -7
-34 8 -18 18 6 4 8 11 5 16 -4 5 -1 9 6 9 8 0 8 4 -1 15 -9 11 -9 15 -1 15 7
0 5 10 -6 28 -47 73 -76 74 -101 5 -7 -23 -8 -33 0 -33 5 0 7 -7 4 -15 -3 -9
1 -18 9 -21 8 -4 13 -10 10 -14 -3 -5 10 -14 28 -21 19 -6 34 -18 34 -25 0 -8
-4 -14 -8 -14 -4 0 -23 -16 -43 -36 -20 -20 -39 -35 -41 -32 -4 4 -13 54 -14
86 -1 6 -7 12 -14 12 -10 0 -12 -15 -11 -52 4 -75 13 -138 21 -152 4 -6 9 -20
10 -31 2 -11 8 -21 13 -23 6 -2 10 -10 10 -18 0 -8 4 -14 8 -14 5 0 9 -7 9
-14 0 -11 -5 -12 -17 -6 -10 5 -20 6 -24 3 -3 -3 -6 -1 -6 5 0 7 -3 11 -7 11
-21 -3 -33 2 -27 13 4 6 3 8 -3 5 -13 -8 -113 70 -113 89 0 9 -44 68 -65 88
-11 10 -19 22 -18 27 2 5 -1 9 -5 9 -4 0 -9 8 -10 18 -1 9 -3 24 -5 32 -2 8
-7 32 -12 53 -4 20 -11 37 -17 37 -5 0 -6 5 -3 10 3 6 1 10 -5 10 -8 0 -9 -7
-5 -17 4 -10 8 -29 9 -43 1 -14 5 -30 9 -36 4 -7 0 -14 -8 -18 -8 -3 -15 -2
-15 3 0 5 -15 19 -34 32 -19 13 -32 27 -30 31 3 4 -4 8 -16 8 -13 0 -19 4 -14
12 5 7 3 8 -7 2 -24 -15 -41 -14 -35 2 4 10 2 12 -7 7 -6 -4 -15 -8 -19 -9 -5
-1 -10 -3 -13 -4 -3 -1 -8 -3 -12 -5 -52 -14 -62 -18 -57 -26 3 -5 0 -9 -5 -9
-6 0 -11 -6 -11 -14 0 -8 -6 -16 -12 -19 -7 -2 -1 -8 14 -12 16 -4 28 -10 28
-15 0 -13 70 -3 96 15 15 9 29 26 31 36 3 10 10 19 17 19 12 0 74 -63 138
-140 21 -25 43 -51 48 -57 6 -7 8 -13 5 -13 -3 0 3 -8 13 -18 9 -10 26 -30 37
-46 29 -40 65 -78 65 -69 0 4 5 0 11 -10 6 -9 14 -15 20 -12 5 4 9 1 9 -4 0
-6 9 -11 20 -11 11 0 20 -5 20 -12 0 -6 3 -9 6 -6 3 4 34 -4 68 -16 34 -13 70
-22 79 -20 9 1 17 -2 17 -7 0 -5 3 -8 8 -8 4 1 9 1 12 -1 3 -1 16 -4 30 -6 13
-3 29 -9 34 -14 4 -4 15 -6 22 -3 8 3 14 0 14 -7 0 -6 4 -9 9 -6 5 3 14 -1 21
-9 7 -8 16 -12 21 -9 5 3 9 0 9 -6 0 -7 7 -10 15 -6 8 3 15 2 15 -2 0 -5 17
-18 38 -30 21 -12 54 -35 72 -51 19 -16 38 -27 42 -25 4 3 8 1 8 -4 0 -4 12
-21 28 -38 39 -41 82 -101 82 -113 0 -6 4 -11 9 -11 6 0 9 -9 8 -19 -1 -15 -4
-17 -14 -10 -7 6 -17 8 -23 4 -5 -3 -10 -1 -10 5 0 6 -5 8 -11 4 -7 -4 -45 -8
-84 -9 -40 -1 -77 -5 -81 -7 -5 -3 -24 -5 -42 -4 -17 0 -32 -3 -32 -7 0 -5 -4
-5 -10 -2 -5 3 -24 8 -42 10 -65 8 -73 13 -100 56 -14 24 -27 50 -27 57 -1 6
-5 12 -10 12 -5 0 -13 9 -16 20 -3 11 -14 27 -23 37 -16 15 -15 16 11 11 15
-3 30 -1 34 5 4 6 1 7 -8 3 -8 -5 -8 -2 2 6 37 30 27 101 -19 139 -21 18 -27
16 -57 -20 -13 -15 -14 -21 -5 -16 12 6 12 5 3 -5 -6 -7 -9 -19 -6 -28 5 -11
3 -13 -8 -7 -8 5 -4 -3 9 -17 16 -18 18 -25 8 -25 -8 0 -12 5 -9 10 4 6 1 7
-7 2 -9 -5 -11 -4 -6 4 5 7 2 10 -6 9 -7 -2 -12 3 -10 10 1 8 -2 11 -8 7 -6
-4 3 -23 23 -48 43 -55 72 -100 69 -109 -1 -5 3 -8 10 -8 6 0 8 -3 5 -7 -4 -3
-2 -12 4 -20 6 -7 8 -13 3 -13 -5 0 -2 -5 6 -10 11 -7 12 -12 4 -20 -9 -9 -14
-9 -18 -1 -4 6 -18 11 -32 11 -13 0 -24 5 -24 11 0 5 -4 7 -10 4 -5 -3 -10 -2
-10 2 0 5 -8 13 -19 18 -10 6 -32 18 -48 27 -24 14 -30 14 -30 3 0 -8 4 -12 9
-9 4 3 8 1 8 -5 0 -5 9 -13 20 -16 12 -4 20 -15 20 -28 0 -15 -3 -18 -8 -10
-11 18 -82 10 -116 -12 -26 -17 -36 -45 -15 -45 5 0 7 -6 3 -12 -4 -7 -4 -10
1 -6 4 4 17 2 29 -4 24 -14 65 -11 85 5 12 10 13 9 7 -3 -5 -8 3 -4 16 10 24
23 26 33 15 70 -2 8 -2 11 1 7 3 -7 45 -28 62 -31 3 -1 10 -4 15 -7 30 -18
155 -52 188 -51 9 0 17 -4 17 -9 0 -6 8 -6 20 1 11 6 20 7 20 3 0 -5 27 -8 60
-8 33 0 60 3 60 8 0 8 43 2 61 -9 7 -4 9 -3 6 3 -4 5 6 8 24 5 16 -2 29 -9 29
-16 0 -6 5 -4 10 4 6 10 10 11 10 3 0 -7 3 -12 8 -11 4 1 21 -5 37 -12 33 -15
40 -17 56 -19 5 0 7 -5 4 -11 -3 -5 2 -10 12 -10 10 0 31 -18 47 -39 30 -41
69 -121 59 -121 -3 0 -1 -6 5 -13 6 -7 10 -23 9 -35 -1 -23 -13 -30 -19 -11
-3 10 -29 17 -75 21 -7 1 -13 6 -13 11 0 5 -7 7 -15 4 -8 -4 -17 -2 -21 4 -4
6 -12 5 -22 -3 -15 -12 -16 -11 -3 4 7 10 16 16 20 14 7 -3 35 26 38 41 10 50
10 63 2 63 -6 0 -8 4 -5 9 3 5 -6 21 -19 35 -14 15 -25 22 -25 15 0 -7 -3 -9
-7 -6 -3 4 -15 -7 -26 -25 -14 -24 -21 -28 -27 -18 -5 8 -7 17 -5 20 2 4 -10
22 -28 41 -18 19 -31 33 -30 31 1 -3 -8 -13 -20 -22 -18 -15 -22 -29 -22 -78
-1 -59 0 -60 37 -83 46 -29 48 -40 8 -35 -17 2 -30 -1 -30 -8 0 -8 -2 -8 -8 0
-10 16 -30 -6 -26 -30 5 -35 53 -64 105 -63 43 0 50 3 55 24 5 17 0 29 -15 42
-29 25 -28 46 2 26 12 -8 32 -16 42 -18 45 -9 137 -48 158 -67 24 -22 31 -157
10 -178 -17 -18 -64 -24 -178 -24 -101 -1 -154 4 -173 16 -6 4 -16 5 -21 1 -9
-5 -32 26 -37 48 -1 4 -3 10 -4 15 -1 4 -2 10 -2 13 1 4 -3 22 -8 40 -7 22 -6
37 1 46 6 7 7 13 2 13 -5 0 -9 28 -10 63 -2 93 -17 167 -34 167 -5 0 -6 6 -3
13 6 16 -23 43 -34 32 -4 -4 -1 -10 6 -12 6 -3 10 -9 7 -14 -3 -4 1 -22 10
-39 8 -16 11 -30 6 -30 -7 0 -7 -9 -1 -25 15 -39 -8 -41 -41 -4 -16 18 -29 29
-29 25 0 -5 -6 -4 -13 3 -10 8 -17 7 -25 -1 -9 -9 -12 -9 -12 1 0 7 -5 9 -12
4 -7 -4 -20 -8 -28 -8 -9 0 -16 -11 -17 -25 -4 -47 65 -82 132 -66 11 2 24 5
28 5 5 1 6 5 3 10 -3 5 0 11 7 14 9 3 12 -24 12 -114 l0 -118 -30 23 c-16 13
-45 43 -63 67 -18 24 -36 49 -40 54 -5 6 -9 12 -9 15 -7 33 -73 127 -73 104 0
-5 -4 -4 -8 1 -12 17 -60 45 -84 49 -13 3 -24 5 -25 7 -2 1 -7 3 -13 4 -5 1
-11 4 -12 5 -4 3 -34 8 -78 12 -19 2 -44 10 -54 18 -31 24 -98 98 -96 105 1 3
-7 14 -18 23 -10 9 -23 28 -27 42 -4 14 -15 31 -24 38 -10 8 -11 11 -2 6 8 -4
3 8 -11 27 -58 77 -79 137 -83 244 -2 55 -8 115 -14 133 -5 17 -7 32 -4 32 3
0 0 7 -7 15 -7 8 -9 15 -5 15 4 0 2 7 -5 15 -9 11 -10 19 -3 26 8 8 13 7 17 0
9 -14 52 25 64 60 13 33 4 76 -19 93 -10 7 -17 16 -14 19 3 4 -7 -6 -23 -21
-32 -30 -49 -60 -47 -82 0 -8 -4 -18 -10 -22 -6 -5 -4 -8 6 -8 12 0 14 -8 11
-30 -2 -17 -9 -33 -15 -37 -5 -3 -7 -1 -4 4 8 12 -17 36 -26 26 -4 -3 -10 2
-13 11 -5 12 -9 14 -14 6 -5 -8 -9 -8 -13 3 -4 10 3 17 23 21 27 5 28 7 20 36
-15 51 -58 80 -121 80 -28 0 -30 -2 -25 -32 2 -17 11 -35 18 -39 7 -5 9 -9 5
-9 -4 0 -2 -6 5 -14 7 -8 18 -13 23 -13 6 1 9 -4 7 -12 -3 -12 0 -12 12 -1 13
10 16 10 16 -3 0 -8 -11 -17 -25 -19 -15 -3 -22 -1 -18 5 3 6 -6 2 -20 -9 -34
-24 -30 -44 12 -71 37 -23 91 -24 116 0 47 42 53 42 49 0 0 -13 2 -23 5 -23 8
0 11 -60 9 -200 0 -25 3 -61 7 -80 4 -19 8 -39 9 -45 1 -5 4 -15 8 -20 4 -6
-2 -11 -12 -11 -10 0 -18 4 -17 9 1 5 -5 11 -15 12 -9 2 -42 22 -73 45 -31 23
-63 39 -70 36 -8 -3 -15 -1 -17 4 -2 5 -18 11 -36 13 -17 2 -35 6 -38 10 -3 3
-15 -3 -27 -13 -11 -11 -24 -17 -29 -14 -17 11 -7 -16 18 -46 15 -17 33 -29
40 -26 8 3 14 2 14 -3 0 -5 10 -7 23 -5 59 9 89 23 83 40 -7 18 -1 18 18 -2
22 -21 20 -31 -6 -32 -42 -2 -57 -8 -82 -31 -36 -34 -39 -58 -7 -68 14 -5 32
-8 39 -7 6 1 20 2 30 3 22 1 68 39 64 52 -1 5 2 9 8 9 6 0 9 3 9 8 -3 20 4 22
34 6 17 -9 43 -23 57 -30 14 -6 32 -25 40 -41 8 -15 18 -29 23 -31 4 -2 7 -9
7 -17 0 -7 22 -47 50 -89 27 -42 49 -79 47 -83 -1 -4 -12 -6 -24 -5 -13 2 -23
0 -23 -5 0 -4 -15 -8 -33 -9 -17 -1 -43 -4 -57 -7 -60 -14 -77 -18 -117 -26
-67 -13 -141 -1 -127 20 3 5 -2 16 -10 24 -15 16 -36 76 -36 106 0 9 -3 19 -7
23 -5 4 -8 15 -8 24 -1 28 -29 112 -37 112 -4 0 -8 7 -8 15 0 8 -4 15 -8 15
-5 0 -15 12 -23 27 -8 15 -23 38 -34 51 -11 13 -20 29 -20 35 0 7 -4 18 -9 25
-11 19 1 27 18 13 8 -7 27 -10 43 -7 15 2 31 5 35 5 15 2 59 51 54 59 -3 6 1
13 10 16 15 6 15 8 -1 26 -10 11 -21 17 -26 15 -4 -3 -22 -7 -40 -9 -36 -4
-94 -59 -83 -78 4 -6 1 -9 -7 -6 -8 3 -14 17 -13 31 0 16 -5 27 -13 27 -15 0
-17 -37 -4 -93 l9 -38 -24 16 c-14 9 -24 11 -24 5 0 -14 46 -60 60 -60 6 0 8
-4 5 -10 -3 -5 1 -10 10 -10 9 0 13 -4 10 -10 -3 -5 -2 -10 3 -10 12 0 46 -70
38 -77 -3 -4 -6 -2 -6 4 0 6 -12 9 -27 7 -15 -1 -33 2 -40 8 -9 7 -13 7 -13
-1 0 -7 -8 -6 -24 4 -27 18 -48 2 -26 -18 10 -9 11 -9 6 0 -4 7 5 6 24 -4 17
-8 38 -12 46 -9 8 3 13 2 10 -3 -3 -5 6 -9 19 -10 49 -3 55 -4 56 -15 0 -6 2
-18 4 -26 2 -14 6 -32 22 -125 3 -16 11 -42 19 -57 l14 -27 -42 5 c-24 4 -45
9 -48 13 -3 3 -12 8 -20 9 -8 2 -22 6 -30 8 -27 6 -105 26 -125 30 -31 8 -195
11 -195 4 0 -3 -8 -6 -17 -7 -10 0 -27 -3 -38 -6 -11 -3 -27 -7 -35 -9 -8 -1
-23 -11 -34 -20 -27 -24 -35 -15 -29 33 4 25 1 50 -8 65 -16 31 -71 63 -77 45
-2 -6 -9 -8 -15 -4 -6 4 -8 0 -4 -9 3 -9 0 -21 -6 -27 -6 -6 -7 -11 -3 -11 5
0 2 -8 -5 -17 -7 -10 -9 -15 -5 -11 5 5 17 -6 27 -22 10 -16 33 -36 51 -44
l33 -14 -42 -1 c-24 -1 -43 -5 -43 -11 0 -5 -5 -10 -11 -10 -5 0 -7 5 -3 12 5
8 2 9 -9 5 -10 -3 -17 -2 -17 4 0 6 -4 7 -10 4 -5 -3 -10 1 -10 9 0 9 6 16 14
16 10 0 12 9 6 39 -7 39 -29 71 -49 71 -6 0 -11 4 -11 9 0 4 -15 8 -32 7 -32
-1 -33 -2 -32 -41 1 -32 8 -45 35 -67 19 -16 39 -26 46 -24 7 3 12 2 11 -2 -2
-13 14 -42 22 -37 4 2 16 -3 26 -11 10 -9 13 -13 7 -9 -7 3 -13 1 -13 -6 0 -6
-7 -17 -15 -23 -20 -14 -30 -86 -12 -86 9 0 9 -2 -1 -8 -9 -7 -8 -13 8 -27 12
-11 20 -13 20 -6 0 7 4 10 9 7 12 -8 63 42 56 54 -3 6 -2 10 4 10 13 0 2 60
-15 77 -19 20 -18 21 16 19 17 -1 30 1 30 5 0 4 8 6 18 4 9 -1 25 2 34 6 9 5
28 10 42 11 13 1 23 6 20 10 -2 4 4 6 13 6 10 0 41 3 68 7 28 5 64 8 80 8 52
0 135 -15 130 -23 -3 -5 1 -11 7 -13 10 -4 10 -6 1 -6 -7 -1 -13 -7 -13 -15 0
-8 -9 -18 -20 -21 -11 -4 -18 -10 -15 -14 2 -4 -7 -14 -20 -21 -19 -10 -22
-16 -14 -27 12 -14 33 -8 24 8 -8 11 6 12 24 0 11 -7 11 -10 -3 -18 -20 -11
-27 -68 -12 -99 9 -18 16 -22 36 -17 23 6 60 33 45 33 -4 0 0 6 8 14 13 14 15
36 6 76 -6 24 -32 39 -51 29 -22 -12 -28 -11 -28 1 0 6 4 9 8 8 4 -2 23 14 42
35 24 28 35 35 41 25 5 -7 9 -10 9 -5 0 4 14 1 30 -8 17 -9 30 -13 30 -9 0 4
7 1 15 -6 8 -7 21 -10 29 -7 7 3 17 2 22 -3 21 -21 217 -36 240 -18 6 4 11 2
11 -7 0 -8 -6 -16 -14 -19 -7 -3 -13 -12 -13 -21 0 -8 -4 -15 -8 -15 -8 0 -7
-36 2 -76 4 -19 0 -21 -40 -20 -48 0 -54 8 -24 29 18 12 18 15 4 35 -8 12 -24
22 -35 22 -10 0 -19 4 -19 10 0 14 -81 5 -90 -10 -4 -6 -11 -11 -16 -10 -5 1
-10 -3 -12 -8 -5 -16 69 -71 89 -67 11 2 19 0 19 -6 0 -5 -7 -9 -15 -9 -8 0
-15 -4 -15 -8 0 -5 -9 -18 -20 -30 l-20 -21 22 -12 c13 -7 42 -13 66 -14 36
-2 46 2 67 27 14 16 25 36 25 44 0 8 5 14 11 14 5 0 7 -5 3 -11 -4 -8 0 -8 15
0 12 7 26 9 32 5 11 -6 42 30 46 54 1 8 4 16 6 19 7 7 -14 65 -29 80 -6 7 -15
9 -20 5 -5 -4 -2 1 5 11 8 9 19 16 25 16 6 -1 22 1 36 4 14 4 34 8 45 10 11 1
25 5 30 8 10 6 209 3 235 -3 8 -2 21 -7 28 -11 6 -5 12 -6 12 -2 0 3 15 -2 33
-12 17 -9 34 -17 37 -16 6 2 104 -100 103 -107 -1 -3 5 -20 13 -39 21 -49 18
-64 -8 -55 -13 4 -32 8 -43 8 -11 1 -24 4 -30 7 -12 7 -226 6 -240 -1 -5 -3
-25 -5 -42 -5 -18 0 -33 -3 -33 -8 0 -5 -6 -7 -12 -4 -7 2 -21 0 -31 -5 -35
-18 -70 -19 -103 -3 -19 9 -34 21 -34 27 0 6 -3 8 -7 5 -3 -4 -12 -2 -20 5 -7
6 -16 8 -20 5 -8 -9 17 -38 28 -31 5 3 9 -2 9 -10 0 -9 3 -15 8 -15 19 3 30
-2 36 -17 3 -8 2 -12 -4 -9 -6 3 -10 1 -10 -6 0 -7 -3 -10 -6 -6 -3 3 -24 -5
-45 -19 -21 -13 -43 -24 -49 -24 -5 0 -10 -4 -10 -10 0 -5 -7 -10 -15 -10 -8
0 -15 -5 -15 -11 0 -5 -4 -8 -9 -4 -5 3 -12 2 -15 -3 -4 -7 -81 -9 -81 -2 0 1
-11 3 -25 6 -46 7 -110 28 -110 35 0 4 -11 6 -24 5 -17 -2 -23 1 -19 10 3 8
-2 14 -11 14 -9 0 -24 9 -33 20 -10 11 -23 20 -30 20 -7 0 -13 5 -13 11 0 5
-5 7 -11 4 -6 -5 -4 -12 8 -20 10 -7 22 -11 28 -7 5 3 4 -2 -4 -12 -8 -9 -17
-13 -20 -9 -6 9 -28 8 -71 -1 -26 -6 -82 -65 -74 -78 3 -5 10 -5 16 -2 7 4 8
2 4 -4 -4 -6 -12 -9 -19 -7 -7 2 -25 7 -41 9 -33 6 -60 26 -35 26 32 0 3 80
-37 107 -15 9 -39 18 -53 19 -56 2 -36 -102 24 -125 24 -9 27 -13 15 -21 -12
-8 -11 -10 8 -11 25 -2 20 -1 90 -18 28 -7 55 -17 58 -22 3 -5 10 -7 15 -4 5
4 9 1 9 -4 0 -6 9 -11 19 -11 11 0 22 -4 25 -9 5 -7 30 -15 90 -27 11 -3 26
-9 33 -16 11 -9 12 -7 7 8 -5 15 -4 16 6 7 8 -7 22 -8 40 -3 20 6 30 4 34 -3
3 -9 5 -8 5 1 1 6 10 12 20 12 23 0 164 59 172 72 3 5 16 10 27 11 12 1 22 4
22 8 0 8 58 30 74 28 5 0 12 5 16 11 4 7 19 13 34 13 14 0 26 4 26 9 0 6 7 7
16 4 9 -4 23 -1 30 5 7 6 18 8 24 4 5 -3 10 -3 10 2 0 20 250 20 350 -1 24 -5
74 -17 90 -22 8 -3 15 -4 15 -3 0 1 17 -6 37 -14 20 -8 39 -13 42 -9 3 3 6 0
6 -6 0 -7 3 -11 8 -11 16 3 72 -14 72 -22 0 -5 7 -6 15 -3 8 4 15 2 15 -3 0
-5 6 -10 13 -11 30 -2 62 -13 65 -22 2 -6 8 -8 12 -5 5 3 28 -1 51 -9 24 -8
46 -13 50 -10 4 2 10 1 13 -4 3 -5 21 -8 41 -7 19 0 35 -3 35 -8 0 -5 7 -7 15
-3 18 6 77 -13 70 -24 -2 -4 4 -15 15 -25 11 -10 17 -21 15 -25 -3 -4 2 -11
11 -14 8 -3 13 -10 9 -15 -3 -5 -1 -12 5 -16 10 -6 35 -83 32 -97 -1 -5 2 -8
6 -8 11 0 15 -54 16 -177 0 -57 3 -103 6 -103 3 0 5 -10 6 -22 0 -13 4 -48 8
-78 10 -80 11 -114 2 -128 -4 -7 -2 -12 4 -12 6 0 9 -4 6 -9 -6 -10 -19 -76
-20 -103 0 -10 -3 -18 -6 -18 -3 0 -6 -8 -7 -17 -2 -43 -8 -73 -14 -73 -3 0
-5 -10 -4 -21 1 -12 -6 -51 -16 -85 -10 -35 -16 -64 -14 -64 2 0 -2 -15 -10
-32 -7 -18 -13 -35 -13 -38 -1 -6 -8 -30 -18 -55 -9 -26 -9 -25 -18 -57 -5
-16 -12 -28 -18 -28 -5 0 -6 -5 -3 -10 3 -5 2 -10 -3 -10 -21 0 0 -36 27 -48
53 -23 176 -38 296 -35 102 2 190 8 190 13 0 1 8 3 17 5 9 2 32 8 51 14 44 15
43 30 -7 160 -20 51 -36 100 -36 107 0 8 -5 14 -11 14 -5 0 -8 4 -5 8 3 5 -3
37 -14 72 -10 34 -19 66 -18 69 0 3 0 8 -2 11 -2 7 -10 60 -15 100 -2 19 -4
35 -5 35 -1 0 -3 9 -4 20 -2 11 -7 40 -11 65 -5 25 -9 52 -10 60 -2 8 -6 38
-10 65 -5 28 -9 67 -9 87 -1 21 -3 38 -6 38 -3 0 -5 57 -4 128 1 70 2 127 3
127 2 0 4 16 6 35 2 19 6 46 9 60 3 14 8 36 11 49 2 13 11 45 20 70 8 25 14
49 12 53 -1 4 7 14 18 22 11 9 16 16 10 16 -16 1 98 70 115 70 9 0 20 4 25 9
17 15 115 43 158 45 9 0 17 3 17 6 0 5 138 6 150 1 3 -1 23 -4 45 -6 22 -2 62
-13 88 -24 26 -11 49 -21 52 -21 3 0 6 0 8 -1 42 -13 175 -18 197 -8 8 4 29 9
45 12 38 7 98 30 106 40 3 4 10 7 15 6 5 -2 29 8 54 21 25 13 48 24 52 25 3 0
9 3 13 7 7 6 25 1 85 -25 14 -5 28 -10 33 -9 12 3 8 -37 -7 -66 -18 -34 -11
-71 18 -105 l23 -27 22 24 c12 12 24 33 26 46 2 12 7 25 9 28 3 2 -4 18 -15
33 -16 22 -17 27 -5 23 9 -3 16 -11 16 -18 0 -6 5 -4 10 4 8 13 10 12 10 -2 0
-13 9 -18 33 -20 58 -3 102 2 105 12 2 6 10 10 18 10 11 0 11 5 3 24 -21 46
-90 64 -138 35 -17 -10 -31 -23 -31 -29 0 -5 -7 -7 -15 -4 -8 4 -12 10 -9 15
3 5 -2 9 -11 9 -8 0 -18 7 -21 15 -4 8 -10 12 -15 9 -5 -3 -9 0 -9 5 0 6 -6
11 -14 11 -8 0 -17 4 -21 9 -3 6 28 8 77 6 46 -2 83 -4 83 -5 0 -1 15 -5 65
-16 14 -3 58 -7 98 -8 57 -3 82 1 110 15 49 25 76 42 83 52 10 13 12 13 39
-11 14 -11 27 -20 30 -19 3 1 16 -8 30 -20 25 -24 50 -30 50 -13 0 6 -6 10
-14 10 -8 0 -28 13 -45 29 -16 15 -33 26 -36 23 -3 -3 -5 2 -5 12 0 10 -5 15
-12 11 -7 -4 9 14 36 39 27 25 53 43 57 41 6 -4 19 17 19 31 0 3 -13 -3 -30
-13 -16 -9 -30 -21 -30 -26 0 -5 -5 -7 -12 -5 -6 2 -31 -15 -55 -39 -24 -24
-48 -41 -53 -38 -6 3 -10 1 -10 -5 0 -11 -58 -36 -72 -32 -5 1 -8 -2 -8 -6 0
-8 -82 -6 -125 2 -11 3 -23 5 -27 5 -5 1 -8 8 -8 17 0 9 5 12 13 8 6 -4 9 -4
5 1 -9 9 26 71 58 101 12 11 27 32 33 45 l12 24 -20 -24 c-12 -13 -21 -20 -21
-17 0 8 -40 -32 -41 -41 -1 -5 -9 -13 -19 -20 -9 -7 -23 -25 -29 -41 -9 -22
-18 -29 -39 -28 -15 1 -30 6 -34 11 -5 6 -8 5 -8 -3 0 -8 -5 -10 -12 -6 -6 4
-36 8 -65 9 -63 3 -70 7 -48 29 9 9 13 16 8 16 -4 0 0 7 10 14 10 8 18 17 18
20 -4 31 1 46 11 40 8 -5 9 -2 5 9 -3 9 -1 22 6 29 7 8 13 20 15 28 2 8 9 18
15 22 7 4 8 8 3 8 -5 0 -3 7 4 15 7 8 9 15 6 15 -4 0 4 11 18 25 13 13 27 33
31 44 3 10 13 22 21 25 8 3 12 10 9 16 -4 6 -11 8 -16 5 -5 -4 -9 -1 -9 4 0 6
4 11 8 11 10 0 9 55 -2 87 -15 46 -82 2 -92 -61 -5 -35 17 -86 38 -86 15 0 38
27 30 35 -4 5 -1 5 6 1 14 -9 12 -12 -40 -70 -15 -16 -25 -32 -23 -35 3 -2 -2
-13 -12 -23 -9 -10 -12 -18 -7 -18 5 0 4 -4 -2 -8 -5 -4 -27 -35 -48 -69 -21
-35 -42 -63 -47 -63 -5 0 -8 -6 -7 -12 2 -7 -3 -12 -9 -10 -7 1 -13 -4 -13
-12 0 -8 -29 -24 -72 -39 -97 -33 -142 -51 -148 -57 -3 -3 -34 -15 -70 -25
-72 -22 -178 -25 -190 -5 -4 6 -11 12 -16 13 -28 6 8 123 52 172 23 25 84 69
84 60 0 -4 7 1 16 9 8 9 20 14 25 11 5 -4 9 -1 9 6 0 7 3 9 7 6 3 -4 12 -2 20
5 12 10 12 7 2 -15 -11 -25 -10 -30 19 -56 34 -29 81 -38 114 -20 24 13 23 29
-7 63 -18 21 -35 30 -60 31 -20 1 -39 6 -43 10 -4 5 -1 5 6 1 6 -4 12 -2 12 4
0 6 5 8 10 5 6 -3 10 -2 10 4 0 5 8 8 18 6 9 -1 23 2 30 8 7 5 15 7 19 4 3 -4
11 1 18 10 9 13 14 13 20 3 5 -8 4 -11 -3 -6 -17 10 -10 -45 8 -66 8 -10 20
-18 27 -18 7 0 13 -4 13 -9 0 -13 92 -4 100 10 7 11 -30 81 -39 73 -6 -5 -31
17 -31 27 0 4 9 6 20 4 11 -2 23 1 26 7 4 6 2 8 -4 4 -6 -3 -13 -2 -16 3 -4 5
7 12 24 16 16 4 30 11 30 17 0 5 7 16 15 24 8 9 15 28 15 44 0 32 -17 36 -77
18 -35 -10 -68 -66 -58 -98 5 -14 2 -20 -10 -20 -10 0 -13 -5 -9 -12 6 -10 4
-10 -8 0 -8 7 -22 10 -29 7 -22 -7 -72 -17 -96 -18 -13 -1 -23 -4 -23 -7 0 -4
-6 -7 -12 -8 -24 -2 -71 -17 -99 -32 -9 -5 -19 -6 -23 -3 -9 9 27 63 42 63 7
0 11 4 8 8 -3 5 7 17 21 28 15 10 32 25 39 32 7 6 15 12 19 12 3 0 15 9 27 20
12 10 26 17 31 13 6 -3 7 -1 4 4 -6 10 6 20 27 21 5 0 12 4 15 9 10 15 171 86
171 76 0 -3 7 0 15 7 8 6 18 9 24 6 5 -3 11 -2 13 3 11 33 248 -7 248 -42 0
-6 3 -8 6 -4 3 3 14 -2 23 -11 10 -10 40 -36 67 -60 27 -23 56 -50 65 -58 14
-12 18 -13 22 -2 4 10 11 9 36 -4 18 -10 30 -14 27 -9 -3 4 6 6 19 3 28 -5 95
32 95 54 0 20 -39 41 -82 43 -31 1 -41 -4 -71 -39 l-34 -40 -89 89 c-49 49
-98 90 -108 92 -11 2 -21 11 -23 19 -3 10 -2 11 4 4 4 -6 19 -10 33 -9 14 1
30 -1 35 -6 6 -4 33 -9 60 -11 28 -2 55 -6 60 -9 6 -3 28 -4 50 -2 22 3 50 4
63 5 14 0 22 6 22 17 0 14 -2 14 -10 1 -5 -8 -10 -10 -10 -5 0 6 -9 11 -20 11
-11 0 -20 -4 -20 -8 0 -11 -23 -6 -32 7 -5 6 -8 5 -8 -3 0 -8 -5 -10 -12 -5
-7 4 -22 8 -33 9 -11 1 -38 5 -60 9 -22 5 -54 9 -71 9 -23 1 -30 5 -26 15 3 9
1 12 -6 7 -7 -4 -12 -6 -12 -4 0 3 26 21 59 42 32 21 67 54 78 73 12 21 23 31
27 24 4 -6 2 -11 -3 -11 -6 0 -11 -11 -11 -24 0 -19 7 -26 30 -31 37 -8 112 3
104 16 -3 5 0 9 5 9 6 0 11 7 11 15 0 8 5 15 12 15 20 0 -15 30 -40 35 -12 2
-27 7 -32 10 -6 3 -10 2 -10 -4 0 -5 -8 -8 -17 -7 -10 2 -21 -2 -25 -8 -13
-20 -21 4 -10 29 8 17 8 26 1 31 -12 7 -31 -15 -23 -28 3 -4 -6 -19 -20 -32
-14 -13 -26 -28 -26 -35 0 -6 -3 -11 -7 -11 -7 0 -30 -17 -81 -60 -7 -6 -17
-8 -22 -5 -6 3 -10 1 -10 -4 0 -6 -20 -16 -45 -22 -25 -6 -45 -16 -45 -21 0
-7 -5 -6 -13 1 -8 6 -16 8 -19 5 -6 -5 -45 -14 -86 -18 -13 -2 -28 -9 -33 -17
-6 -10 -9 -10 -9 -1 0 6 -5 12 -11 12 -5 0 -8 -4 -5 -8 3 -5 -1 -9 -9 -9 -12
0 -12 4 2 21 10 12 23 24 28 28 6 4 7 8 2 8 -4 0 0 11 9 25 9 13 21 46 28 72
10 39 19 51 51 69 22 12 41 27 43 33 5 16 20 14 44 -9 12 -10 25 -17 30 -14 4
3 8 1 8 -4 0 -5 16 -9 35 -9 19 0 35 4 35 9 0 4 3 7 8 6 4 -2 18 5 32 15 13 9
19 17 12 17 -7 0 -10 5 -7 10 3 6 1 10 -4 10 -6 0 -20 8 -31 18 -12 9 -30 17
-42 17 -12 0 -23 6 -25 13 -3 6 1 12 7 12 7 0 23 9 37 20 14 11 23 20 20 20
-4 0 -2 11 3 24 5 13 6 33 4 44 -5 17 -10 18 -41 11 -52 -11 -83 -47 -87 -97
-2 -28 0 -39 8 -34 19 12 34 10 40 -4 6 -15 -9 -28 -23 -19 -5 3 -12 -4 -16
-15 -4 -11 -11 -18 -16 -14 -6 3 -5 12 3 22 12 14 10 14 -10 3 -12 -7 -20 -16
-17 -22 4 -5 2 -9 -4 -9 -5 0 -16 -6 -24 -14 -28 -28 -50 -23 -58 12 -4 18 -2
32 3 32 5 0 8 13 6 29 -1 18 4 37 15 49 12 13 14 22 8 26 -12 8 -54 -70 -46
-84 3 -6 3 -10 -2 -10 -4 0 -9 -21 -9 -47 -1 -27 -5 -59 -8 -73 -3 -14 -9 -40
-12 -57 -3 -18 -10 -33 -15 -33 -5 0 -8 -3 -7 -7 2 -5 -10 -28 -25 -53 -15
-25 -27 -41 -27 -35 0 5 -7 0 -15 -11 -8 -12 -29 -27 -47 -35 -18 -7 -35 -15
-38 -18 -3 -3 -24 -16 -48 -29 -44 -24 -69 -42 -106 -77 -12 -11 -24 -19 -27
-18 -3 1 -12 -9 -19 -22 -7 -14 -20 -25 -27 -25 -8 0 -11 -4 -8 -10 3 -5 0
-10 -9 -10 -8 0 -16 -3 -19 -7 -2 -5 -2 -3 -1 4 2 7 -1 15 -6 18 -5 3 -9 17
-8 30 2 18 5 21 15 13 10 -8 13 -7 13 3 0 11 2 11 8 2 6 -10 14 -9 35 2 15 7
27 11 27 8 0 -3 9 5 20 19 21 28 34 77 19 79 -71 8 -104 -5 -123 -46 -9 -19
-19 -35 -22 -35 -3 0 -3 3 -1 8 3 4 1 16 -4 27 -6 16 -8 13 -9 -15 -3 -45 4
-103 15 -141 3 -9 -3 -25 -12 -36 -45 -54 -52 -63 -48 -63 4 0 -35 -63 -53
-85 -4 -5 -8 -12 -8 -15 0 -3 -14 -20 -32 -38 -18 -18 -32 -30 -32 -26 0 3 -6
2 -13 -4 -20 -17 -150 -14 -178 4 -5 3 -9 0 -9 -7 0 -10 -3 -10 -11 -2 -7 7
-21 8 -40 3 -18 -5 -27 -5 -24 1 4 5 1 9 -6 9 -7 0 -5 8 6 20 10 11 14 20 10
20 -5 0 -4 5 3 12 7 7 12 20 12 29 0 10 6 24 13 31 12 14 19 33 20 55 0 7 4
10 9 7 4 -3 8 2 8 10 0 16 28 60 80 125 36 46 22 51 -22 8 -15 -15 -28 -24
-29 -20 0 4 -4 -2 -9 -14 -13 -32 -25 -28 -26 8 -1 18 -11 41 -26 56 l-25 25
-22 -23 c-11 -12 -22 -29 -22 -36 -1 -7 -2 -19 -3 -25 -2 -16 15 -59 29 -74 5
-5 18 -13 28 -17 18 -7 17 -8 -2 -36 -12 -16 -21 -33 -21 -39 0 -5 -7 -15 -15
-22 -9 -8 -15 -9 -15 -2 0 6 4 13 8 16 15 9 1 62 -22 91 l-23 29 -27 -27 c-16
-16 -26 -37 -26 -55 0 -33 23 -85 33 -75 4 3 7 1 7 -5 0 -16 37 -15 43 1 2 6
7 9 11 6 3 -3 -3 -15 -14 -27 -12 -12 -18 -22 -15 -22 4 0 -6 -13 -22 -29 -19
-19 -36 -27 -56 -26 -15 2 -30 -1 -32 -5 -3 -5 -16 -7 -30 -5 -14 1 -25 -1
-25 -5 0 -4 -12 -10 -27 -13 -16 -3 -41 -11 -58 -18 -16 -7 -36 -13 -44 -15
-8 -1 -18 -9 -23 -16 -6 -8 -8 0 -4 25 5 41 61 171 84 200 8 9 11 17 6 17 -5
0 -4 4 1 8 6 4 23 27 40 52 38 58 131 150 178 175 20 11 37 23 37 27 0 4 6 5
14 2 7 -3 22 3 31 13 10 10 21 17 24 16 9 -4 134 38 149 50 6 5 12 6 12 3 0
-4 13 2 29 13 16 12 34 21 40 21 6 0 11 4 11 9 0 5 9 13 20 16 11 4 18 11 15
16 -4 5 -2 9 4 9 6 0 23 12 39 28 76 71 101 92 111 92 6 0 11 3 11 8 0 13 60
42 60 29 0 -8 4 -6 11 3 9 13 10 13 6 0 -2 -8 -9 -14 -15 -13 -25 6 -17 -28
14 -58 69 -66 170 -36 110 33 -21 25 -62 44 -81 39 -7 -2 -7 1 0 7 6 6 28 13
50 16 22 4 42 11 43 16 2 6 9 10 15 10 8 0 7 -4 -1 -12 -20 -20 -14 -42 16
-55 46 -21 74 -21 114 0 36 20 37 21 20 40 -35 39 -88 53 -120 33 -7 -4 7 18
30 50 24 31 43 60 43 63 0 3 4 13 8 21 5 8 -1 4 -12 -10 -11 -14 -28 -32 -36
-41 -8 -9 -15 -21 -15 -27 0 -7 -7 -12 -17 -12 -9 0 -13 -3 -9 -7 3 -4 -11
-14 -31 -24 -83 -37 -103 -34 -79 12 7 14 12 34 11 46 -1 13 3 19 8 16 6 -4 8
0 4 9 -3 9 -3 19 1 22 10 11 11 36 1 36 -5 0 -9 -7 -9 -16 0 -8 -5 -12 -10 -9
-6 4 -8 10 -6 14 9 14 -33 64 -64 78 -26 10 -31 10 -27 0 3 -7 -1 -21 -8 -31
-18 -25 -3 -74 35 -109 27 -25 59 -30 45 -7 -3 5 -1 11 3 14 5 3 8 -5 7 -17
-1 -12 -3 -22 -4 -22 -2 0 -4 -9 -6 -20 -2 -11 -9 -21 -14 -23 -6 -2 -11 -10
-11 -18 0 -9 -4 -12 -10 -9 -5 3 -10 1 -10 -4 0 -6 -3 -10 -7 -9 -5 1 -18 -3
-29 -10 -12 -6 -24 -8 -28 -5 -3 3 -6 1 -6 -5 0 -7 -7 -12 -15 -12 -8 0 -15
-4 -15 -10 0 -5 -5 -10 -11 -10 -6 0 -27 -15 -46 -32 -20 -18 -43 -40 -53 -48
-9 -8 -32 -24 -51 -34 -19 -11 -40 -26 -47 -33 -7 -7 -20 -13 -28 -13 -8 0
-14 -5 -14 -11 0 -5 -4 -7 -10 -4 -5 3 -10 1 -10 -6 0 -7 -2 -10 -6 -7 -3 3
-26 -2 -53 -12 -51 -20 -74 -14 -76 19 -1 11 2 18 7 15 7 -5 10 3 7 23 0 3 6
10 15 15 9 5 14 13 11 19 -4 5 -3 9 2 9 10 0 50 89 59 127 1 7 13 39 25 72 23
59 43 76 71 60 10 -5 15 -3 15 6 0 8 -6 15 -13 15 -6 0 -15 7 -18 15 -6 17 77
109 88 98 3 -4 6 -1 6 6 0 7 4 10 9 6 6 -3 15 4 21 15 6 11 14 19 18 18 4 -1
22 6 40 15 17 10 32 15 32 11 0 -4 6 -2 13 3 14 12 71 32 107 39 13 3 28 11
32 17 4 7 8 8 8 3 0 -5 7 -3 15 4 13 11 17 8 28 -19 6 -17 17 -31 24 -31 7 0
13 -4 13 -9 0 -5 16 -8 35 -7 19 1 37 -3 39 -9 3 -5 5 -4 5 3 1 6 6 12 12 12
11 0 45 31 42 38 -6 16 -77 52 -103 52 -26 0 -29 2 -18 14 7 8 18 13 23 13 6
-1 9 4 8 11 -2 6 2 12 8 12 24 0 75 75 57 86 -6 4 -8 3 -5 -3 4 -5 -4 -19 -17
-30 l-24 -21 3 37 c3 44 -13 81 -35 81 -16 0 -59 -33 -61 -48 -8 -38 -3 -92 8
-96 7 -3 13 -13 13 -21 0 -9 -4 -13 -10 -10 -5 3 -10 1 -10 -4 0 -6 -7 -11
-15 -11 -8 0 -15 -6 -15 -12 0 -9 -4 -8 -10 2 -8 12 -10 12 -10 1 0 -9 -8 -12
-25 -9 -14 3 -28 1 -31 -4 -11 -17 -23 3 -15 25 5 12 7 30 6 40 -2 9 1 17 6
17 5 0 9 9 9 20 0 11 -4 20 -10 20 -5 0 -10 -8 -10 -17 0 -22 -10 -11 -15 17
-12 61 -96 96 -109 46 -3 -13 1 -41 8 -62 8 -22 15 -35 15 -30 1 5 9 1 20 -8
10 -9 28 -18 40 -19 12 -1 21 -8 21 -17 0 -15 -39 -72 -40 -57 0 4 -13 1 -30
-8 -16 -8 -32 -15 -35 -14 -11 2 -70 -25 -83 -38 -7 -7 -20 -13 -28 -13 -8 0
-12 -4 -9 -10 3 -5 1 -10 -4 -10 -6 0 -33 -22 -61 -50 -28 -27 -51 -50 -53
-50 -8 0 -10 247 -2 282 3 16 7 40 10 54 2 15 9 30 15 34 6 4 12 11 11 16 -1
21 12 54 21 54 5 0 7 4 3 9 -3 5 -1 12 4 15 5 3 11 -1 15 -9 3 -8 20 -24 38
-36 18 -12 26 -19 16 -16 -9 3 -19 3 -23 -1 -4 -4 -10 -7 -13 -7 -4 0 -21 -9
-38 -19 l-32 -19 29 -25 c51 -42 122 -35 155 16 9 13 11 21 5 18 -6 -4 -11 -2
-11 4 0 6 -4 8 -10 5 -5 -3 -10 -2 -10 4 0 5 -3 16 -6 25 -4 12 0 16 15 16 12
0 21 5 21 11 0 5 4 8 9 5 5 -3 11 4 15 17 4 16 -1 27 -16 39 -13 9 -26 14 -30
12 -4 -3 -8 -1 -8 4 0 10 -28 7 -60 -6 -8 -3 -17 -6 -20 -6 -3 -1 -11 -5 -17
-9 -7 -5 -13 -4 -13 2 0 5 5 13 10 16 6 4 7 11 4 17 -4 6 -2 8 4 4 6 -3 13 3
17 14 3 11 11 20 16 20 6 0 7 5 4 10 -3 6 -2 10 3 10 12 0 8 61 -7 88 -15 28
-44 24 -71 -11 -12 -15 -19 -27 -15 -27 3 0 1 -8 -4 -19 -6 -10 -7 -22 -3 -26
7 -7 8 -12 11 -40 0 -8 8 -15 17 -15 9 0 13 -5 10 -12 -3 -7 -9 -21 -12 -30
-4 -10 -10 -18 -15 -18 -5 0 -18 -21 -30 -47 -12 -27 -24 -50 -28 -53 -6 -5
-7 -9 -15 -53 -3 -12 -5 -22 -6 -22 -6 0 -18 -102 -20 -165 0 -35 0 -35 -13
-10 -9 17 -10 27 -3 32 7 4 5 9 -5 13 -8 3 -16 17 -17 32 -1 15 -5 29 -10 32
-4 3 -14 19 -22 34 -8 16 -24 40 -37 53 -12 13 -20 24 -18 24 2 0 -12 16 -31
36 -20 19 -33 41 -30 49 5 14 -12 33 -29 33 -12 0 -64 101 -66 127 0 11 -7 38
-15 60 -7 22 -12 29 -9 15 4 -24 3 -24 -10 -6 -8 10 -12 24 -8 30 3 6 3 8 -2
4 -4 -4 -20 1 -34 10 -14 10 -42 18 -61 17 -31 0 -35 -3 -36 -26 -1 -23 41
-86 55 -82 3 0 5 -2 4 -5 -2 -9 47 -7 70 3 10 4 20 6 22 4 4 -5 13 -89 9 -89
-2 0 -15 11 -29 25 -14 14 -25 21 -25 15 0 -7 -7 -5 -16 4 -19 19 -28 21 -18
4 6 -10 4 -10 -8 0 -8 7 -24 9 -33 5 -14 -5 -16 -3 -10 7 6 10 0 12 -23 8 -22
-3 -29 -1 -23 6 10 13 7 38 -10 77 -10 26 -20 34 -41 30 -5 0 -8 3 -8 8 0 6
-9 8 -20 6 -11 -2 -20 2 -20 8 0 8 -3 8 -9 -1 -4 -8 -12 -14 -17 -15 -5 -1 -8
-9 -8 -17 4 -38 19 -60 53 -77 23 -12 36 -24 34 -33 -2 -8 1 -7 8 4 9 14 13
15 19 5 5 -7 19 -14 31 -16 13 -2 26 -7 29 -11 5 -7 27 -14 48 -15 6 0 12 -4
12 -9 0 -4 7 -8 15 -8 8 0 15 -4 15 -10 0 -5 -7 -10 -15 -10 -8 0 -15 4 -15 8
0 18 -79 12 -114 -9 -20 -12 -36 -18 -34 -13 4 15 -12 52 -25 57 -19 7 -55
-27 -63 -59 -4 -16 -11 -35 -17 -42 -7 -9 -6 -11 7 -6 12 5 15 2 10 -10 -4
-10 -1 -16 7 -16 12 0 12 -2 0 -9 -9 -6 -10 -11 -2 -15 6 -4 9 -11 6 -16 -3
-5 1 -25 9 -45 8 -19 13 -35 12 -35 -2 0 0 -16 4 -35 9 -40 3 -43 -27 -16 -12
11 -24 17 -27 14 -3 -4 -6 -2 -6 3 0 6 -13 10 -30 9 -16 0 -30 -3 -30 -7 0 -5
-4 -8 -10 -8 -18 0 -48 -33 -43 -47 7 -18 62 -42 93 -39 14 1 36 9 50 19 34
24 37 22 34 -25 -5 -82 -13 -173 -18 -193 -2 -11 -5 -28 -5 -38 -1 -14 -6 -16
-28 -11 -30 8 -40 15 -82 57 -16 15 -34 27 -42 27 -10 -1 -9 -4 3 -14 10 -7
16 -15 14 -17 -2 -2 7 -14 20 -27 13 -12 24 -19 24 -15 0 4 7 -3 16 -15 8 -12
20 -20 25 -17 5 4 9 1 9 -5 0 -6 4 -9 9 -5 16 10 25 -18 28 -85 2 -36 6 -72 9
-80 4 -8 6 -23 5 -32 -1 -10 2 -18 8 -18 6 0 8 -6 5 -14 -3 -8 0 -17 6 -21 9
-6 9 -10 -1 -16 -21 -13 -29 -11 -29 7 0 13 -3 14 -14 5 -11 -9 -15 -8 -20 5
-5 13 -9 14 -20 5 -11 -9 -16 -9 -22 0 -5 8 -3 9 6 4 8 -5 11 -4 6 3 -3 6 -14
11 -24 11 -18 1 -67 8 -67 11 0 1 -10 3 -22 6 -13 2 -23 -1 -23 -6 0 -6 9 -10
21 -10 26 0 168 -58 192 -78 9 -8 17 -12 17 -8 0 10 21 -12 50 -53 13 -20 18
-31 9 -27 -11 6 -11 5 1 -6 46 -40 69 -129 44 -169 -5 -8 -9 -19 -10 -26 -1
-6 -14 -27 -28 -46 -14 -19 -26 -39 -26 -46 0 -7 -4 -9 -10 -6 -5 3 -10 0 -10
-7 0 -8 -14 -36 -31 -64 -18 -27 -32 -51 -32 -54 0 -11 -21 -50 -26 -50 -4 0
-7 -10 -8 -21 -1 -12 -7 -27 -14 -33 -9 -8 -10 -8 -5 2 4 6 2 12 -3 12 -6 0
-11 11 -11 24 0 21 -17 80 -37 126 -3 8 -7 20 -8 25 -4 17 -78 170 -85 175
-11 8 -4 54 9 58 6 2 9 7 7 11 -3 4 9 23 27 42 17 19 30 37 29 42 -1 4 2 7 7
7 5 0 18 3 28 7 16 6 16 5 5 -10 -12 -14 -10 -20 14 -42 15 -14 30 -25 33 -26
3 0 15 -2 26 -4 25 -5 83 15 89 30 11 30 -65 78 -101 64 -16 -6 -23 -5 -23 4
0 8 -4 7 -11 -3 -8 -11 -12 -12 -16 -2 -2 6 -10 9 -16 5 -13 -8 -19 -10 -43
-12 -8 0 -13 -4 -11 -8 3 -5 -1 -14 -9 -21 -8 -7 -14 -10 -14 -7 0 3 -6 0 -14
-7 -8 -7 -12 -16 -9 -20 2 -5 -3 -8 -12 -8 -9 0 -14 -4 -11 -9 3 -5 0 -14 -8
-20 -10 -8 -19 -4 -39 19 -15 16 -27 35 -27 41 0 5 -4 8 -8 5 -4 -3 -19 13
-32 35 -14 21 -28 39 -32 39 -7 0 -23 41 -20 53 1 4 -3 7 -9 7 -5 0 -7 5 -4
10 3 6 2 10 -3 10 -8 0 -21 30 -28 65 -1 6 -3 12 -4 15 -19 51 -21 248 -2 277
7 12 13 24 13 27 -4 24 1 36 11 30 6 -4 8 -3 5 3 -4 6 7 31 23 56 15 25 26 48
23 51 -4 3 -1 6 5 6 15 0 59 87 67 130 8 43 8 44 5 50 -1 3 -3 52 -5 110 -2
69 1 107 9 112 8 6 8 8 -1 8 -8 0 -7 9 4 31 12 23 18 28 24 18 5 -8 9 -10 9
-5 0 5 9 -1 19 -13 11 -13 25 -20 32 -16 6 4 15 2 19 -6 7 -10 11 -10 24 1 9
7 19 10 23 7 3 -4 16 5 29 18 23 25 23 26 5 44 -9 9 -25 21 -35 24 -9 4 -14
12 -11 18 4 5 9 8 12 5 8 -7 63 60 63 77 0 21 -18 32 -55 33 -21 0 -39 -8 -60
-31z m20 -85 c3 -6 -1 -7 -9 -4 -18 7 -21 14 -7 14 6 0 13 -4 16 -10z m-540
-178 c-3 -3 -11 0 -18 7 -9 10 -8 11 6 5 10 -3 15 -9 12 -12z m1045 -79 c0 -7
5 -13 10 -13 6 0 10 -7 10 -15 0 -8 5 -15 12 -15 6 0 9 -3 5 -6 -3 -4 4 -15
16 -25 12 -10 19 -18 15 -19 -4 0 5 -12 21 -27 32 -32 84 -112 84 -130 0 -7 4
-13 9 -13 5 0 6 -4 3 -10 -3 -5 -1 -10 6 -10 7 0 10 -3 7 -6 -3 -3 -1 -22 4
-42 6 -20 11 -47 13 -60 2 -21 1 -21 -15 -7 -9 8 -22 15 -28 15 -7 0 -12 4
-12 8 0 12 -62 11 -77 -1 -7 -5 -13 -6 -13 -3 0 4 -7 1 -15 -8 -21 -20 -19
-29 12 -56 20 -18 38 -23 68 -21 22 1 45 7 50 14 22 26 32 16 32 -33 0 -34 -3
-48 -11 -43 -7 4 -7 2 1 -7 7 -8 8 -22 3 -40 -5 -16 -6 -31 -2 -34 3 -3 0 -6
-7 -6 -7 0 -10 -4 -7 -8 3 -5 -1 -20 -9 -35 -7 -14 -12 -27 -10 -29 2 -2 -3
-8 -10 -15 -11 -10 -15 -7 -23 15 -5 15 -19 37 -30 48 -12 12 -18 25 -14 29 4
4 3 5 -3 3 -5 -1 -20 6 -32 17 -43 40 -54 47 -68 41 -8 -3 -21 2 -30 10 -8 9
-15 12 -15 8 0 -5 -5 -3 -10 2 -6 6 -29 9 -50 7 -24 -2 -40 0 -40 7 0 5 5 10
10 10 6 0 22 11 36 25 25 25 84 61 95 58 3 -1 6 4 6 12 0 10 -6 11 -26 2 -14
-6 -29 -15 -32 -20 -3 -4 -16 -9 -28 -10 -16 -1 -21 -6 -18 -18 3 -12 0 -16
-10 -12 -8 3 -23 -4 -34 -16 -18 -20 -39 -28 -39 -16 0 3 9 18 20 33 11 15 22
38 25 51 4 24 -20 71 -37 71 -21 0 -77 -70 -71 -87 4 -10 2 -14 -4 -10 -6 4
-6 -6 1 -28 8 -27 15 -33 36 -32 19 2 25 -3 25 -18 0 -11 -6 -19 -13 -17 -8 1
-11 -2 -8 -7 4 -5 -2 -16 -12 -23 -11 -7 -20 -17 -21 -23 0 -5 -8 -18 -16 -28
-8 -9 -15 -21 -15 -25 0 -5 -6 -9 -12 -9 -10 0 -13 21 -12 76 1 42 2 78 3 81
5 13 14 110 14 147 0 27 4 40 11 36 6 -4 5 1 -3 10 -8 11 -9 17 -2 17 7 0 8 8
2 23 -4 12 -7 32 -6 45 1 12 -1 22 -4 22 -3 0 -6 14 -6 30 -1 17 3 30 7 30 4
0 8 -4 8 -10 0 -5 6 -7 13 -5 6 2 25 7 41 9 36 6 63 32 70 67 6 38 -4 47 -51
45 -22 0 -39 -4 -37 -8 3 -4 -5 -12 -16 -18 -11 -6 -20 -17 -20 -25 0 -8 -5
-15 -11 -15 -5 0 -8 -4 -4 -9 3 -5 0 -13 -6 -17 -8 -4 -9 -3 -5 4 4 7 4 12 -1
12 -14 0 -31 47 -22 62 7 10 9 10 9 0 0 -12 50 34 50 47 0 3 4 12 9 20 7 11
12 10 29 -5 12 -10 29 -19 39 -21 28 -5 94 8 88 17 -3 4 2 11 11 14 9 4 14 13
10 21 -3 8 -3 21 0 29 4 10 17 2 45 -27 21 -23 39 -47 39 -54z m-1288 -25 c-7
-7 -12 -8 -12 -2 0 14 12 26 19 19 2 -3 -1 -11 -7 -17z m1772 -4 c3 -8 2 -12
-4 -9 -6 3 -10 10 -10 16 0 14 7 11 14 -7z m-649 -524 c-8 -9 -13 -24 -10 -33
6 -14 60 -31 98 -30 10 0 15 -2 12 -6 -4 -3 -11 -6 -16 -6 -5 0 -9 -4 -8 -9 0
-5 -5 -12 -11 -16 -19 -12 29 -50 64 -51 44 -2 60 1 68 14 4 7 8 8 8 4 0 -4 6
-2 14 5 8 7 13 17 13 22 -4 19 -38 46 -62 48 -20 2 -24 7 -20 26 2 14 6 27 9
29 8 8 55 -30 61 -49 4 -10 11 -18 16 -18 5 0 9 -5 9 -11 0 -6 7 -17 15 -26 8
-8 13 -19 10 -24 -4 -5 -2 -9 4 -9 9 0 23 -30 26 -55 5 -40 -134 -190 -206
-223 l-42 -20 -28 29 c-67 69 -147 217 -133 248 4 9 8 18 8 21 1 3 7 15 14 28
7 12 10 22 7 22 -4 0 0 6 7 13 7 8 22 26 33 41 11 16 25 34 32 41 7 7 9 16 5
20 -4 5 -1 5 6 1 11 -7 10 -11 -3 -26z m-647 -588 c2 -9 4 -22 4 -29 1 -7 7
-14 15 -17 7 -3 13 -13 13 -22 0 -8 -6 -14 -12 -11 -7 2 -12 9 -11 14 1 6 -9
9 -22 7 -14 -1 -25 2 -25 7 0 6 -3 8 -8 6 -4 -3 -20 5 -36 18 -20 16 -25 25
-16 30 7 5 11 4 8 -1 -3 -5 5 -17 17 -26 23 -17 24 -17 44 8 11 15 18 31 14
38 -3 6 -2 7 2 3 5 -4 11 -15 13 -25z m-1423 -362 c10 -11 26 -20 36 -20 10 0
21 -5 24 -11 4 -6 14 -8 22 -5 8 3 11 1 8 -4 -3 -6 -1 -11 4 -11 20 -3 26 -4
36 -10 6 -4 18 -5 28 -4 9 2 17 0 17 -5 0 -4 10 -5 23 -2 19 5 20 4 7 -9 -29
-29 -63 -39 -145 -43 -54 -2 -79 1 -150 20 -11 3 -26 6 -33 8 -25 5 -31 21 -9
22 38 3 50 8 75 34 13 14 21 32 19 42 -7 24 15 23 38 -2z"/>
<path d="M3001 4311 c-16 -15 -33 -26 -36 -22 -3 3 -3 -3 1 -13 6 -15 4 -17
-6 -11 -10 6 -11 4 -4 -6 9 -15 10 -20 12 -57 1 -13 7 -20 12 -17 6 3 10 1 10
-6 0 -8 6 -6 18 4 10 10 22 14 25 10 4 -3 7 1 7 11 0 9 4 15 9 12 11 -7 23 22
15 35 -3 5 -1 9 5 9 7 0 7 8 1 25 -5 14 -7 25 -4 25 3 0 -1 7 -10 15 -19 20
-19 20 -55 -14z"/>
<path d="M2002 4949 c-51 -19 -71 -66 -52 -123 12 -38 34 -43 62 -15 55 55 48
159 -10 138z"/>
<path d="M3139 4942 c-21 -25 -29 -60 -15 -66 8 -3 7 -5 -1 -5 -22 -2 21 -81
44 -81 12 0 42 37 36 44 -4 3 -2 6 3 6 30 0 2 101 -31 114 -21 8 -18 9 -36
-12z"/>
<path d="M1844 4817 c-33 -18 -45 -36 -51 -72 -6 -37 18 -87 39 -82 26 5 65
59 66 90 2 62 -17 85 -54 64z"/>
<path d="M3630 4820 c-8 -5 -18 -6 -22 -4 -4 3 -8 0 -8 -7 0 -7 -3 -9 -6 -6
-4 4 -17 -5 -30 -20 -17 -20 -20 -29 -11 -35 7 -4 8 -8 2 -8 -5 0 -4 -4 4 -9
8 -5 23 -8 33 -6 10 2 18 0 18 -5 0 -11 60 9 76 25 6 6 16 21 23 33 12 23 6
30 -31 36 -7 1 -18 5 -23 8 -6 4 -17 3 -25 -2z"/>
<path d="M3240 4810 c0 -6 -4 -9 -9 -5 -12 7 -51 -42 -52 -64 0 -13 -2 -12 -8
2 -7 18 -8 18 -21 1 -9 -11 -10 -15 -2 -10 6 4 12 3 12 -3 0 -5 -6 -12 -12
-15 -9 -3 -8 -5 2 -4 8 1 24 -2 35 -8 25 -13 32 -12 72 5 18 7 31 17 28 21 -3
4 2 11 11 14 9 4 14 13 10 21 -3 8 -1 15 3 15 5 0 8 8 7 17 -3 20 -76 32 -76
13z"/>
<path d="M1345 4741 c-55 -16 -85 -59 -78 -109 3 -21 5 -43 6 -49 1 -17 2 -16
18 4 12 14 12 16 0 8 -10 -5 -12 -4 -7 4 4 6 11 9 16 6 14 -8 66 21 75 42 14
32 15 81 2 90 -7 6 -21 7 -32 4z"/>
<path d="M3769 4731 c-43 -43 -50 -106 -15 -143 18 -19 20 -19 31 -4 7 9 18
16 25 16 7 0 10 3 7 6 -3 4 0 15 7 26 10 13 11 30 6 54 -5 20 -10 37 -12 38
-1 1 -10 7 -18 13 -11 8 -19 6 -31 -6z"/>
<path d="M1084 4697 c-12 -48 -11 -71 3 -85 21 -22 15 -34 -9 -18 -13 8 -36
17 -52 20 -29 5 -89 -14 -100 -32 -8 -13 42 -65 55 -57 5 4 9 2 9 -3 0 -5 15
-8 33 -8 34 1 75 29 86 59 6 16 8 16 26 1 11 -8 14 -12 6 -8 -9 5 -12 3 -7 -4
5 -9 13 -7 30 5 17 13 22 27 22 57 0 46 -24 78 -68 95 -25 9 -27 8 -34 -22z"/>
<path d="M1555 4718 c-24 -14 -45 -40 -39 -50 2 -4 0 -9 -6 -13 -6 -4 -8 -11
-4 -16 3 -5 0 -17 -7 -25 -10 -12 -9 -13 6 -8 12 5 16 4 12 -3 -4 -6 0 -13 8
-17 8 -3 17 -1 20 5 4 5 10 7 14 4 5 -2 23 9 40 25 25 24 31 38 31 70 0 37 -2
40 -27 40 -16 0 -37 -6 -48 -12z"/>
<path d="M2575 4720 c-11 -4 -23 -6 -27 -3 -5 2 -8 -1 -8 -7 0 -6 -4 -9 -9 -6
-5 3 -8 -2 -7 -11 1 -23 43 -71 67 -78 11 -4 19 -11 19 -16 0 -6 -4 -8 -8 -5
-13 8 -72 -32 -72 -49 0 -8 10 -21 23 -30 27 -17 87 -27 87 -13 0 5 4 7 9 3 5
-3 17 2 25 11 9 8 16 12 16 8 0 -3 7 -1 15 6 15 13 11 35 -5 25 -5 -3 -15 3
-21 14 -7 11 -19 17 -27 13 -11 -4 -13 -1 -7 8 6 10 4 12 -8 7 -10 -4 -17 -2
-17 4 0 6 9 9 20 6 11 -3 20 -1 20 5 0 5 5 6 10 3 17 -11 11 28 -10 63 -11 18
-28 32 -39 32 -11 0 -21 4 -23 9 -1 4 -12 5 -23 1z"/>
<path d="M3152 4701 c-8 -4 -12 -17 -10 -27 2 -10 -2 -18 -9 -17 -12 3 -12
-21 0 -34 4 -4 17 -8 30 -10 12 -2 26 -8 31 -13 13 -13 59 -13 89 1 35 16 54
54 37 74 -25 30 -129 9 -143 -30 -4 -8 -11 -15 -16 -15 -10 0 -8 22 4 61 7 21
6 22 -13 10z"/>
<path d="M4047 4688 c-9 -7 -21 -26 -27 -42 -11 -31 -4 -96 12 -96 5 0 6 -4 3
-10 -3 -6 1 -7 9 -4 9 3 16 10 16 16 0 5 4 7 9 4 14 -9 51 58 49 88 -1 14 -6
26 -10 26 -4 0 -8 7 -8 15 0 18 -30 20 -53 3z"/>
<path d="M1375 4613 c-16 -67 79 -127 140 -87 14 9 26 14 26 10 1 -3 3 -10 4
-16 1 -5 3 -21 4 -35 0 -15 7 -25 16 -25 11 0 12 5 5 25 -5 14 -7 25 -5 25 3
0 -1 10 -10 23 -8 13 -13 27 -10 30 3 4 2 5 -1 2 -4 -2 -25 10 -46 27 -22 17
-57 34 -78 38 -35 6 -39 5 -45 -17z m154 -67 c-3 -3 -11 5 -18 17 -13 21 -12
21 5 5 10 -10 16 -20 13 -22z"/>
<path d="M2690 4580 c0 -5 5 -10 11 -10 5 0 7 5 4 10 -3 6 -8 10 -11 10 -2 0
-4 -4 -4 -10z"/>
<path d="M3755 4520 c-3 -5 -1 -10 4 -10 6 0 11 5 11 10 0 6 -2 10 -4 10 -3 0
-8 -4 -11 -10z"/>
<path d="M4030 4503 l-23 -21 29 -26 c16 -14 34 -26 39 -27 6 0 20 -2 33 -3
12 -2 22 1 22 6 0 5 4 7 9 4 9 -6 51 26 51 38 0 11 -27 36 -39 36 -6 0 -11 4
-11 8 0 4 -19 8 -43 8 -30 -1 -50 -7 -67 -23z"/>
<path d="M1394 4476 c-37 -12 -46 -26 -28 -43 8 -8 14 -19 14 -25 0 -6 3 -8 7
-5 3 4 13 2 20 -5 17 -14 83 -19 83 -6 0 5 4 7 9 3 10 -6 41 21 41 36 0 14
-71 54 -96 54 -12 1 -34 -3 -50 -9z"/>
<path d="M1830 4457 c-57 -26 -66 -58 -21 -77 33 -13 101 -21 101 -10 0 4 11
12 25 18 37 17 24 52 -25 66 -48 14 -55 14 -80 3z"/>
<path d="M4320 4339 c-42 -17 -61 -46 -64 -99 -1 -19 4 -25 19 -25 11 0 25 4
32 8 7 5 17 6 23 2 5 -3 10 -1 10 6 0 7 3 9 7 6 11 -12 33 30 37 71 4 33 1 38
-17 39 -12 1 -33 -3 -47 -8z"/>
<path d="M2424 4317 c1 -12 5 -28 9 -34 5 -8 4 -13 -2 -13 -6 0 -3 -9 7 -21
20 -24 92 -61 92 -48 0 6 5 7 10 4 6 -4 10 8 10 29 0 49 -44 98 -92 102 -30 3
-35 0 -34 -19z"/>
<path d="M813 4303 c-7 -3 -13 -10 -13 -16 0 -6 -7 -18 -15 -27 -11 -12 -12
-24 -5 -50 9 -32 40 -70 58 -70 16 0 46 40 47 63 4 49 -41 110 -72 100z"/>
<path d="M2647 4303 c-9 -2 -15 -9 -12 -14 4 -5 -2 -9 -11 -9 -10 0 -14 -3
-11 -7 4 -3 3 -11 -2 -17 -14 -18 -22 -66 -11 -66 5 0 10 -6 10 -14 0 -7 7
-19 15 -26 21 -18 75 35 76 75 0 47 -4 65 -13 65 -5 0 -6 5 -3 10 6 10 -6 11
-38 3z"/>
<path d="M4129 4289 c-13 -9 -28 -15 -33 -12 -5 3 -6 1 -2 -5 3 -5 1 -12 -5
-14 -5 -2 -11 -21 -12 -43 -2 -38 -1 -40 28 -40 17 0 36 6 43 13 8 7 19 9 25
5 7 -3 9 -3 5 2 -4 4 0 14 8 22 9 10 14 29 12 52 -2 29 -7 36 -24 37 -12 1
-32 -7 -45 -17z"/>
<path d="M4635 4258 c-4 -10 -13 -18 -21 -18 -17 0 -43 -50 -42 -81 2 -29 16
-49 33 -49 19 0 76 50 70 60 -3 5 -1 11 4 15 8 5 9 19 2 69 0 4 -7 6 -15 3 -8
-3 -17 -1 -19 6 -3 8 -7 6 -12 -5z"/>
<path d="M3894 4226 c-9 -51 -2 -79 30 -108 23 -21 33 -25 48 -17 17 9 22 28
20 79 -2 28 -39 69 -70 75 -18 3 -22 -2 -28 -29z"/>
<path d="M3627 4230 c-38 -23 -56 -50 -57 -82 0 -38 -40 -59 -67 -36 -13 10
-18 -1 -14 -26 1 -4 -2 -13 -7 -20 -11 -13 -7 -49 8 -77 28 -52 125 -60 115
-10 -6 32 -35 82 -45 76 -4 -3 -10 0 -12 5 -2 6 -13 12 -24 12 -11 1 -21 8
-21 15 0 6 4 10 9 7 18 -11 57 -14 63 -4 4 6 -1 7 -12 4 -15 -5 -15 -4 -3 4
10 8 18 7 28 -1 11 -9 17 -8 26 3 6 8 17 16 25 18 29 6 60 54 57 91 -2 33 -34
42 -69 21z"/>
<path d="M2464 4196 c-3 -9 -10 -14 -14 -11 -8 5 -60 -50 -60 -63 0 -13 35
-28 73 -31 21 -1 37 2 37 8 0 6 5 11 11 11 15 0 39 26 39 44 0 8 8 19 18 25
14 8 11 9 -13 7 -16 -2 -36 1 -42 6 -7 6 -13 7 -13 3 0 -4 -7 -2 -15 5 -12 10
-16 9 -21 -4z"/>
<path d="M4474 4192 c-29 -19 -19 -106 15 -127 29 -18 60 -23 68 -12 17 23 0
123 -18 111 -5 -3 -9 2 -9 11 0 11 -5 15 -14 12 -7 -3 -18 -1 -22 3 -5 5 -14
6 -20 2z"/>
<path d="M928 4169 c-7 -4 -15 -6 -19 -3 -4 2 -12 -3 -19 -11 -7 -8 -16 -12
-21 -9 -5 2 -11 -8 -15 -23 -4 -15 -13 -37 -20 -48 -19 -27 -17 -45 4 -45 11
0 13 3 5 8 -8 5 -9 13 -3 22 6 8 10 10 10 5 0 -10 47 -12 80 -4 21 6 71 59 64
70 -3 5 -1 9 4 9 5 0 9 6 9 14 0 16 -60 27 -79 15z"/>
<path d="M610 4160 c-8 -5 -11 -10 -6 -10 5 0 2 -8 -6 -17 -10 -12 -15 -31
-12 -56 3 -41 18 -61 51 -71 18 -6 25 -1 38 24 20 39 16 82 -13 115 -24 28
-30 29 -52 15z"/>
<path d="M1346 4145 c-53 -18 -75 -58 -62 -109 5 -22 10 -24 34 -17 47 14 71
34 86 71 23 58 4 76 -58 55z"/>
<path d="M4049 4139 c-8 -5 -10 -9 -6 -9 4 0 3 -9 -3 -20 -6 -11 -7 -20 -3
-20 4 0 9 -11 9 -25 3 -38 34 -71 69 -70 29 0 30 1 31 53 2 39 -2 52 -13 52
-8 0 -12 4 -9 8 8 14 -59 41 -75 31z"/>
<path d="M4623 4083 c-16 -15 -29 -33 -28 -40 0 -21 37 -40 68 -36 40 4 99 44
92 61 -3 8 -5 17 -5 21 0 4 -6 8 -12 9 -7 1 -29 5 -50 8 -31 5 -40 2 -65 -23z"/>
<path d="M1059 4073 c-24 -28 -37 -103 -18 -103 5 0 9 -7 9 -15 0 -8 7 -15 15
-15 7 0 19 -8 25 -17 11 -17 11 -17 6 0 -3 9 -1 17 3 17 5 0 18 15 28 33 16
27 17 38 8 70 -9 34 -28 56 -46 57 -3 0 -17 -12 -30 -27z"/>
<path d="M4580 4080 c0 -5 5 -10 11 -10 5 0 7 5 4 10 -3 6 -8 10 -11 10 -2 0
-4 -4 -4 -10z"/>
<path d="M1451 4071 c-11 -7 12 -81 30 -91 6 -4 8 -13 4 -20 -14 -22 -23 -80
-13 -80 5 0 6 -5 3 -11 -4 -5 4 -20 18 -33 l24 -22 -43 2 c-24 1 -44 -2 -44
-7 0 -5 -3 -8 -7 -7 -5 2 -19 -5 -32 -14 l-23 -16 26 -23 c24 -21 41 -28 73
-31 7 -1 30 7 52 16 35 16 38 21 34 48 -4 26 -2 30 13 24 10 -4 16 -4 12 -1
-3 3 -2 22 2 41 4 19 4 37 -1 40 -5 3 -9 12 -9 20 0 9 -9 23 -21 33 -20 16
-20 16 12 16 26 0 33 4 34 23 1 12 -2 22 -7 22 -5 0 -7 4 -3 10 18 29 -98 83
-134 61z"/>
<path d="M423 4034 c-31 -16 -52 -44 -32 -44 5 0 19 -9 31 -20 26 -24 75 -26
107 -3 18 12 22 13 16 2 -4 -8 1 -5 12 6 23 23 20 41 -8 50 -10 4 -19 10 -19
14 0 14 -75 11 -107 -5z"/>
<path d="M4567 4044 c-8 -8 1 -24 12 -24 4 0 8 7 8 15 0 16 -9 20 -20 9z"/>
<path d="M1365 3996 c-48 -18 -61 -29 -71 -61 -21 -62 4 -85 62 -57 37 17 81
86 63 98 -5 3 -7 9 -4 14 9 14 -19 18 -50 6z"/>
<path d="M2456 3984 c-12 -47 23 -104 72 -116 72 -19 53 106 -20 131 -43 15
-45 14 -52 -15z"/>
<path d="M650 3983 c0 -8 62 -39 69 -34 2 1 7 -1 10 -6 3 -4 16 -17 29 -27 20
-17 22 -17 22 -2 0 15 -44 42 -62 38 -5 -1 -8 3 -8 8 0 6 -3 9 -7 8 -5 -1 -18
3 -30 10 -13 7 -23 9 -23 5z"/>
<path d="M4269 3982 c-2 -6 -10 -12 -18 -14 -18 -4 -46 -30 -53 -49 -6 -15 9
-32 31 -37 38 -8 71 -8 71 0 0 5 4 7 9 4 5 -3 21 6 35 21 26 26 26 27 9 44
-10 10 -29 20 -43 21 -14 2 -28 7 -31 12 -4 4 -8 4 -10 -2z"/>
<path d="M1865 3930 c-11 -4 -30 -10 -41 -14 -27 -10 -66 -86 -44 -86 5 0 7
-9 5 -20 -2 -11 0 -18 5 -15 4 3 11 -1 13 -7 4 -10 6 -10 6 0 1 6 9 12 19 12
9 0 30 11 46 25 16 14 25 25 21 25 -5 0 -4 5 3 12 16 16 15 65 0 70 -7 3 -22
2 -33 -2z"/>
<path d="M2320 3922 c-14 -6 -17 -18 -10 -39 1 -5 2 -11 1 -15 0 -5 3 -8 8 -8
5 0 17 -7 25 -16 9 -8 32 -16 51 -17 34 -2 60 -27 28 -27 -9 0 -14 -3 -10 -6
3 -4 0 -13 -8 -21 -21 -21 -19 -32 10 -43 54 -20 104 -1 130 51 15 29 11 39
-16 39 -10 0 -17 6 -15 13 1 6 1 9 -1 5 -3 -5 -12 -8 -22 -8 -9 0 -22 -5 -29
-12 -9 -9 -12 -8 -12 5 0 9 5 17 10 17 6 0 10 7 10 15 0 8 -4 15 -10 15 -5 0
-9 3 -9 8 3 19 -2 33 -10 27 -5 -3 -15 1 -23 8 -15 14 -75 20 -98 9z"/>
<path d="M4799 3915 c-41 -22 -58 -85 -34 -125 3 -5 -6 -12 -20 -16 -27 -7
-34 -24 -10 -24 8 0 15 5 15 11 0 6 6 9 12 7 7 -3 19 1 26 9 8 7 17 11 22 8 5
-3 21 14 35 39 45 77 20 127 -46 91z"/>
<path d="M677 3884 c-2 -13 2 -35 9 -49 7 -14 10 -25 6 -25 -4 0 2 -7 12 -15
11 -8 14 -15 7 -15 -7 0 -9 -5 -5 -12 5 -9 2 -9 -9 1 -14 11 -17 11 -17 0 0
-11 -2 -11 -10 1 -6 9 -10 11 -10 3 0 -7 -6 -10 -14 -7 -8 3 -17 0 -21 -5 -3
-6 -11 -9 -16 -6 -5 4 -9 -1 -9 -10 0 -9 -4 -13 -10 -10 -5 3 -10 0 -10 -9 0
-8 -6 -16 -12 -18 -24 -8 40 -39 85 -41 31 -1 43 -5 37 -12 -13 -16 26 -37 73
-40 34 -2 45 2 69 28 15 17 28 34 28 37 -1 17 -19 28 -50 31 -19 2 -41 7 -47
12 -9 7 -13 4 -13 -7 0 -9 -5 -16 -10 -16 -7 0 -7 6 0 20 6 10 9 25 8 32 -2 6
2 12 7 13 6 0 16 4 23 8 6 5 12 5 12 1 0 -3 6 -1 14 5 25 21 -10 104 -49 116
-51 17 -73 14 -78 -11z"/>
<path d="M478 3883 c-21 -5 -22 -16 -6 -46 13 -25 38 -52 38 -41 0 3 7 1 15
-6 8 -7 22 -10 30 -6 8 3 15 2 15 -3 0 -4 7 -8 15 -8 8 0 12 4 10 8 -3 4 7 10
21 13 26 7 26 7 8 34 -22 34 -35 46 -54 51 -26 6 -74 8 -92 4z"/>
<path d="M4930 3883 c-28 -10 -60 -46 -60 -69 0 -19 6 -23 48 -26 26 -2 50 1
54 6 4 6 10 7 13 4 10 -10 54 44 48 58 -8 22 -71 38 -103 27z"/>
<path d="M3697 3848 c-15 -11 -27 -26 -27 -34 0 -8 -3 -14 -8 -14 -4 0 -6 -18
-4 -40 6 -57 30 -67 70 -30 18 16 33 34 33 39 5 42 4 58 -5 70 -9 12 -8 13 3
6 9 -5 12 -4 8 2 -12 20 -44 20 -70 1z"/>
<path d="M660 3805 c0 -2 10 -10 23 -16 20 -11 21 -11 8 4 -13 16 -31 23 -31
12z"/>
<path d="M4790 3758 c0 -6 -7 -8 -15 -4 -8 3 -15 1 -15 -4 0 -6 -7 -10 -15
-10 -8 0 -15 -5 -15 -11 0 -5 -4 -7 -10 -4 -14 9 -12 -2 5 -29 18 -28 61 -47
90 -42 11 3 25 5 32 5 6 1 19 8 27 17 14 14 14 17 0 39 -9 14 -20 22 -25 19
-5 -3 -9 -2 -9 3 0 4 -11 13 -25 20 -16 7 -25 7 -25 1z"/>
<path d="M3529 3720 c-8 -73 33 -122 100 -117 48 4 27 83 -29 112 -33 17 -69
20 -71 5z"/>
<path d="M1815 3596 c-11 -6 -21 -12 -23 -13 -5 -2 19 -46 33 -60 7 -7 15 -9
19 -6 3 4 6 2 6 -4 0 -13 49 -23 56 -12 2 4 11 6 19 2 8 -3 15 0 15 6 0 6 5
10 11 9 22 -5 20 20 -3 44 -38 41 -95 55 -133 34z"/>
<path d="M2595 3582 c-29 -6 -44 -21 -42 -42 1 -10 4 -17 8 -14 4 2 9 -2 12
-10 9 -22 63 -46 76 -33 8 8 11 7 11 -2 0 -9 8 -7 29 5 28 17 35 44 13 52 -7
2 -12 10 -12 18 0 8 -9 14 -20 14 -11 0 -20 4 -20 8 0 8 -23 10 -55 4z"/>
<path d="M4759 3563 c-1 -5 -1 -11 0 -15 0 -4 -10 -10 -24 -14 -33 -8 -31 -26
6 -55 41 -31 99 -35 130 -8 l24 21 -33 29 c-23 20 -43 29 -68 29 -21 0 -33 4
-29 10 3 6 4 10 1 10 -3 0 -7 -3 -7 -7z"/>
<path d="M4627 3545 c3 -8 9 -12 14 -9 12 7 11 11 -5 17 -10 4 -13 1 -9 -8z"/>
<path d="M4338 3528 l-21 -21 21 -17 c12 -10 18 -21 14 -25 -4 -5 1 -5 11 -2
9 4 17 2 17 -4 0 -13 68 -9 93 5 25 15 21 41 -9 65 -36 28 -97 28 -126 -1z"/>
<path d="M3410 3529 c0 -5 -6 -9 -13 -9 -15 0 -48 -36 -40 -44 4 -3 0 -6 -8
-6 -10 -1 -9 -5 5 -15 10 -8 23 -12 27 -9 5 3 9 0 9 -7 0 -6 8 -9 20 -6 11 3
20 0 20 -5 0 -6 6 -5 15 2 8 7 15 9 15 5 0 -4 6 -2 13 4 8 6 18 7 22 3 5 -4 5
-1 1 6 -4 7 -1 15 8 18 9 3 16 15 16 27 0 11 -3 17 -7 14 -3 -4 -15 0 -25 10
-10 9 -18 13 -18 10 0 -3 -13 -2 -30 3 -18 5 -30 5 -30 -1z"/>
<path d="M4660 3520 c8 -5 20 -10 25 -10 6 0 3 5 -5 10 -8 5 -19 10 -25 10 -5
0 -3 -5 5 -10z"/>
<path d="M4600 3488 c0 -5 -4 -7 -8 -4 -13 8 -52 -23 -52 -40 0 -8 -5 -14 -12
-14 -6 0 -8 -3 -5 -7 4 -3 3 -11 -3 -18 -6 -8 -2 -11 13 -12 12 -1 31 -3 42
-6 32 -7 73 13 97 45 21 30 21 31 2 42 -27 16 -74 25 -74 14z"/>
<path d="M99 3482 c-35 -9 -62 -28 -74 -53 -13 -25 -12 -27 12 -38 14 -6 28
-9 31 -6 3 2 11 0 19 -6 7 -6 13 -7 13 -2 0 5 10 10 22 10 13 1 28 9 34 17 6
9 13 14 15 12 2 -2 11 12 20 30 11 23 12 31 4 24 -9 -8 -15 -8 -20 0 -3 6 -11
8 -16 5 -5 -4 -9 -2 -9 4 0 9 -22 11 -51 3z"/>
<path d="M4330 3451 c0 -4 -11 -7 -25 -5 -17 1 -29 -4 -36 -17 -6 -11 -15 -17
-22 -13 -7 4 -9 4 -5 -1 4 -4 3 -14 -3 -21 -8 -10 -7 -17 3 -27 15 -16 88 -30
88 -18 0 5 9 11 19 14 10 2 27 16 36 31 14 21 15 29 5 41 -7 8 -16 13 -20 10
-5 -3 -11 -1 -15 5 -8 12 -25 13 -25 1z"/>
<path d="M485 3430 c-13 -15 -12 -20 15 -50 30 -33 51 -38 122 -29 34 4 32 39
-2 67 -39 33 -110 39 -135 12z"/>
<path d="M4955 3422 c-14 -13 -22 -28 -19 -33 3 -5 1 -9 -5 -9 -6 0 -8 -6 -5
-14 3 -9 -2 -16 -13 -18 -15 -3 -15 -5 5 -10 15 -4 20 -2 16 5 -3 7 3 1 14
-13 11 -13 19 -27 17 -31 -8 -12 56 -67 83 -70 67 -10 83 5 61 55 -13 28 -73
61 -95 52 -9 -3 -12 -1 -9 4 3 6 11 10 16 10 25 0 62 60 53 85 -10 26 -89 17
-119 -13z m29 -94 c-3 -4 -9 -8 -15 -8 -5 0 -9 4 -9 8 0 5 7 9 15 9 8 0 12 -4
9 -9z"/>
<path d="M3340 3401 c-8 -5 -18 -7 -24 -4 -5 3 -6 1 -3 -4 4 -6 0 -13 -8 -17
-43 -16 3 -66 61 -66 46 0 98 38 88 63 -9 25 -88 44 -114 28z"/>
<path d="M648 3349 c-20 -21 -12 -34 9 -13 8 8 19 12 24 9 5 -4 9 -2 9 3 0 18
-25 19 -42 1z"/>
<path d="M4815 3341 c-4 -9 0 -11 12 -6 10 4 28 7 41 6 12 0 22 3 22 8 0 14
-69 7 -75 -8z"/>
<path d="M1349 3333 c-57 -39 -67 -103 -24 -149 20 -21 53 2 73 51 14 34 10
65 -11 95 -13 18 -15 18 -38 3z"/>
<path d="M4467 3320 c-14 -15 -22 -33 -18 -39 10 -16 101 -43 101 -31 0 6 6
10 13 10 23 0 58 36 51 53 -8 21 -31 30 -81 33 -34 1 -46 -3 -66 -26z"/>
<path d="M510 3331 c0 -6 -7 -11 -15 -11 -19 0 -71 -50 -70 -68 0 -15 26 -33
37 -26 4 3 8 1 8 -5 0 -7 9 -7 28 0 15 6 28 9 29 7 1 -2 11 5 22 14 11 9 21
15 23 13 2 -3 9 9 15 25 9 24 8 32 -5 42 -13 11 -14 11 -7 -2 8 -13 7 -13 -8
-1 -10 8 -20 11 -24 8 -3 -4 -12 -2 -20 4 -9 9 -13 8 -13 0z"/>
<path d="M2366 3302 c-2 -2 -18 -5 -36 -7 -31 -4 -63 -32 -54 -47 3 -5 1 -8
-4 -8 -5 0 -12 -9 -15 -20 -3 -11 -1 -18 4 -14 5 3 9 1 9 -4 0 -13 39 -22 45
-11 3 4 11 6 18 3 19 -7 63 31 75 66 7 20 8 30 1 30 -6 0 -8 4 -4 9 5 9 -31
11 -39 3z"/>
<path d="M4850 3288 c0 -4 -7 -8 -15 -8 -17 0 -37 -34 -40 -71 -2 -23 2 -28
26 -31 16 -3 29 -1 29 4 0 4 8 8 18 8 19 1 48 20 52 35 1 6 7 21 12 34 6 17 5
27 -4 32 -17 11 -78 8 -78 -3z"/>
<path d="M1156 3258 c3 -5 10 -6 15 -3 13 9 11 12 -6 12 -8 0 -12 -4 -9 -9z"/>
<path d="M860 3246 c0 -8 -4 -16 -9 -18 -13 -4 -23 -78 -11 -78 6 0 10 -5 10
-11 0 -15 22 -35 48 -43 16 -5 22 -3 22 7 0 9 4 17 9 19 9 3 14 35 12 71 -2
39 -81 90 -81 53z"/>
<path d="M595 3236 c-60 -34 -58 -31 -32 -60 32 -35 91 -46 134 -27 18 8 33
21 33 28 0 16 -41 54 -52 47 -4 -3 -8 -1 -8 5 0 5 -8 8 -17 6 -10 -1 -22 1
-28 5 -5 4 -19 3 -30 -4z"/>
<path d="M4585 3147 c-13 -18 -11 -23 12 -51 14 -17 29 -31 32 -31 3 0 11 -3
16 -6 9 -5 36 -5 73 -1 18 3 10 43 -15 76 -12 15 -24 27 -27 27 -3 -1 -7 0 -8
0 -2 1 -18 2 -36 4 -23 1 -37 -4 -47 -18z"/>
<path d="M4814 3152 c-4 -9 -7 -20 -6 -23 1 -3 -10 -4 -23 -1 -22 4 -23 1 -18
-29 5 -35 50 -92 65 -83 4 3 8 1 8 -4 0 -5 12 -9 28 -8 23 1 27 5 28 31 0 17
-4 36 -9 43 -5 6 -6 12 -1 12 5 0 1 5 -9 11 -14 8 -16 14 -6 25 9 11 8 14 -4
14 -9 0 -22 7 -30 15 -13 13 -16 12 -23 -3z"/>
<path d="M4890 3122 c0 -4 10 -9 22 -9 18 -2 20 0 8 7 -18 12 -30 13 -30 2z"/>
<path d="M4964 3118 c-3 -5 -10 -6 -15 -3 -5 4 -10 0 -10 -7 -1 -13 -1 -18 4
-40 2 -15 39 -44 50 -40 4 1 7 -2 7 -6 0 -7 22 -8 72 -4 47 5 -23 107 -73 107
-17 1 -33 -3 -35 -7z"/>
<path d="M340 3099 c0 -4 -9 -5 -20 -2 -12 3 -20 0 -20 -6 0 -7 -4 -10 -9 -7
-5 3 -14 0 -20 -8 -9 -10 -7 -18 6 -35 23 -26 90 -55 98 -41 4 6 11 8 16 5 5
-4 9 -1 9 4 0 6 5 10 11 9 6 -2 16 5 22 14 9 13 7 21 -7 37 -11 12 -27 21 -38
21 -10 0 -18 4 -18 8 0 5 -7 9 -15 9 -8 0 -15 -4 -15 -8z"/>
<path d="M4331 2993 c-24 -52 -5 -106 44 -130 23 -12 48 -6 39 8 -3 5 -1 9 4
9 17 0 6 69 -15 98 -30 40 -58 46 -72 15z"/>
<path d="M450 2985 c-19 -8 -31 -14 -26 -14 5 -1 2 -9 -7 -19 -9 -9 -18 -29
-20 -43 -5 -23 -2 -25 24 -24 16 1 29 -2 29 -6 0 -15 54 15 75 40 20 26 31 70
18 72 -42 6 -63 5 -93 -6z"/>
<path d="M603 2914 c-10 -12 -21 -20 -25 -17 -4 2 -5 -3 -2 -11 3 -9 1 -16 -4
-16 -6 0 -10 -9 -9 -20 1 -11 7 -20 15 -20 7 0 11 -4 8 -9 -8 -13 71 4 89 19
23 19 42 62 37 83 -5 26 -84 19 -109 -9z"/>
<path d="M829 2892 c-32 -16 -59 -60 -50 -84 8 -20 76 -18 108 2 25 16 34 32
39 73 3 26 2 27 -32 25 -20 -1 -49 -9 -65 -16z"/>
<path d="M288 2655 c-2 -2 -23 -6 -47 -9 -25 -3 -47 -10 -50 -15 -3 -4 -16
-11 -28 -15 -25 -8 -109 -93 -106 -107 2 -5 -1 -9 -6 -9 -5 0 -13 -15 -17 -32
-4 -18 -9 -40 -11 -48 -8 -31 -5 -86 6 -126 11 -42 74 -124 94 -124 7 0 24 -6
39 -14 33 -17 65 -25 173 -41 124 -18 166 -51 178 -141 6 -39 -24 -130 -49
-150 -73 -59 -202 -74 -288 -34 -35 17 -54 35 -78 76 -35 58 -53 71 -75 52
-17 -13 -13 -32 25 -136 15 -41 34 -74 43 -77 84 -27 322 -23 339 6 4 5 11 9
16 7 15 -5 86 43 128 86 50 52 77 114 81 188 6 102 -28 170 -106 212 -39 22
-161 51 -252 61 -16 1 -45 10 -65 19 -104 47 -93 208 18 264 90 45 193 20 250
-61 53 -74 56 -78 74 -71 18 7 24 25 31 105 4 53 3 58 -22 75 -15 9 -33 17
-40 17 -7 0 -13 4 -13 8 0 4 -17 10 -37 14 -21 5 -45 10 -53 12 -20 4 -148 11
-152 8z"/>
<path d="M4536 2653 c-2 -3 -18 -6 -34 -8 -44 -6 -112 -27 -112 -35 0 -4 -6
-7 -13 -7 -21 0 -107 -62 -154 -110 -44 -45 -98 -146 -107 -198 -2 -17 -5 -30
-6 -30 -10 0 -4 -181 7 -220 28 -100 89 -187 178 -255 28 -21 136 -73 152 -73
7 0 13 -3 13 -7 0 -8 19 -10 160 -14 69 -2 130 0 135 4 11 8 60 19 116 26 20
3 56 8 80 12 l44 8 1 114 c2 170 2 170 22 177 38 15 55 62 23 64 -45 4 -268 5
-278 1 -28 -9 -12 -42 30 -63 23 -12 45 -26 48 -32 4 -5 7 -37 8 -70 1 -59 -1
-62 -42 -102 -23 -22 -54 -42 -67 -44 -45 -6 -154 -5 -186 1 -108 21 -211 123
-262 260 -17 45 -20 73 -18 145 2 48 6 99 9 113 9 49 45 116 80 150 51 50 59
56 113 81 40 19 66 23 144 23 127 1 175 -20 225 -98 23 -36 42 -56 55 -56 26
0 29 7 36 91 l6 74 -36 18 c-20 9 -38 17 -41 17 -3 0 -25 9 -50 20 -25 11 -45
15 -45 9 0 -6 -6 -7 -12 -2 -7 4 -20 9 -28 11 -23 4 -190 9 -194 5z"/>
<path d="M3113 2622 c-17 -18 -18 -16 20 -54 l32 -33 -1 -365 c-1 -201 -2
-368 -3 -373 0 -4 -12 -12 -25 -19 -31 -14 -42 -39 -22 -53 17 -13 185 -13
204 -1 10 6 10 11 1 22 -6 8 -8 14 -3 14 5 0 -5 7 -22 16 l-32 15 -2 102 c-1
56 -2 109 -1 117 0 8 0 44 0 80 -1 36 -1 72 0 80 0 8 0 44 0 80 -1 36 -1 71 0
78 0 6 1 32 2 57 1 25 3 45 4 45 1 0 33 -39 71 -87 38 -48 77 -96 87 -105 9
-10 15 -18 12 -18 -3 0 4 -10 17 -23 13 -13 34 -39 48 -57 14 -19 49 -62 78
-96 28 -34 52 -66 52 -70 0 -3 8 -14 18 -23 9 -9 35 -38 57 -66 22 -27 44 -55
50 -61 5 -7 26 -33 45 -58 32 -42 57 -56 125 -72 6 -1 15 -3 20 -4 35 -8 35
-8 35 425 0 412 1 426 20 445 11 11 25 20 30 20 6 0 10 11 10 25 0 17 -6 25
-17 26 -170 9 -215 -1 -193 -41 5 -10 19 -22 30 -25 11 -3 21 -12 21 -18 5
-47 3 -620 -2 -623 -6 -3 -40 34 -86 95 -10 13 -25 31 -33 40 -8 9 -26 32 -40
51 -13 19 -33 44 -43 55 -10 11 -33 39 -50 63 -17 23 -35 42 -40 42 -6 0 -8 3
-4 6 3 4 0 12 -8 20 -7 7 -60 73 -117 145 -167 212 -141 191 -243 193 -62 1
-92 -2 -102 -12z"/>
<path d="M767 2624 c-15 -15 -6 -45 18 -56 16 -7 26 -22 30 -42 8 -51 1 -730
-8 -743 -5 -7 -15 -13 -22 -13 -19 0 -36 -33 -25 -50 6 -10 37 -14 122 -15 62
0 121 3 131 7 26 13 21 37 -13 56 -16 9 -30 24 -31 32 0 8 -2 86 -3 173 l-2
157 26 1 c281 5 304 9 370 58 50 36 67 60 81 111 35 121 -12 243 -112 296 -15
7 -29 10 -33 7 -3 -4 -6 -2 -6 4 0 5 -6 11 -12 12 -36 7 -504 11 -511 5z m421
-87 c17 -6 32 -15 32 -21 0 -5 3 -7 6 -3 8 7 24 -8 49 -46 21 -33 27 -107 12
-151 -12 -37 -57 -83 -95 -97 -29 -12 -221 -20 -223 -10 -3 20 -5 327 -1 334
6 12 182 7 220 -6z"/>
<path d="M1553 2624 c-21 -9 -15 -29 20 -60 l33 -29 -2 -365 c-1 -201 -2 -370
-3 -375 0 -6 -14 -19 -31 -28 -32 -19 -34 -24 -21 -46 7 -10 39 -14 134 -15
69 -1 123 2 121 5 -2 4 1 9 7 11 16 5 -7 48 -26 48 -26 0 -32 34 -31 200 l1
165 39 -3 c35 -3 66 -20 66 -37 0 -5 20 -32 88 -120 4 -5 23 -32 42 -60 19
-27 38 -52 43 -53 4 -2 5 -8 1 -13 -3 -5 -1 -9 4 -9 5 0 21 -17 35 -39 59 -89
67 -93 168 -95 50 -1 93 2 95 6 3 5 9 6 14 3 4 -3 7 3 5 12 -2 10 -4 21 -4 25
-1 3 -13 9 -29 12 -20 5 -49 36 -112 119 -46 62 -88 114 -92 115 -5 2 -8 10
-8 17 0 7 -3 15 -8 17 -14 6 -72 83 -72 95 0 7 6 13 14 13 20 0 117 46 110 53
-3 3 3 8 13 11 21 7 66 79 56 90 -3 3 -2 6 4 6 11 0 12 5 14 65 1 34 -3 68
-15 110 -14 52 -106 133 -157 139 -14 1 -29 5 -34 8 -13 7 -466 9 -482 2z
m436 -95 c115 -52 131 -200 32 -286 -32 -28 -72 -36 -181 -37 l-85 -1 0 173
-1 172 95 0 c74 0 106 -5 140 -21z"/>
<path d="M148 1378 c-16 -5 -28 -17 -29 -26 0 -9 -2 -25 -4 -34 -9 -50 71 -83
131 -54 19 8 34 19 35 23 0 5 2 17 4 28 2 11 -4 31 -14 44 -20 27 -77 35 -123
19z"/>
<path d="M2448 1376 c-26 -13 -40 -66 -24 -88 37 -50 156 -43 156 9 0 8 4 12
9 9 11 -7 1 31 -16 58 -13 23 -89 30 -125 12z"/>
<path d="M1975 1270 l-40 -15 0 -73 c1 -77 -4 -94 -29 -99 -9 -2 -22 -5 -28
-7 -7 -2 -23 -7 -35 -11 -13 -4 -23 -10 -24 -14 0 -3 -2 -14 -4 -23 -3 -19 5
-21 78 -20 28 1 37 -3 38 -16 0 -9 1 -111 3 -227 2 -236 7 -259 71 -289 37
-18 171 -21 181 -4 3 4 12 8 20 8 8 0 26 7 39 16 23 15 24 17 9 45 -15 29 -37
38 -49 19 -4 -6 -10 -8 -15 -5 -5 3 -12 0 -15 -6 -4 -5 -13 -8 -21 -5 -7 3
-16 1 -19 -4 -8 -13 -58 7 -72 29 -11 17 -16 182 -14 387 l1 51 83 1 c128 0
119 -4 115 44 l-3 42 -97 -1 -98 0 0 98 c0 110 1 109 -75 79z"/>
<path d="M2863 1273 c-24 -8 -44 -20 -44 -26 -1 -7 -2 -43 -3 -82 l-1 -70 -57
-19 c-31 -11 -59 -25 -62 -31 -9 -25 13 -37 65 -39 l54 -1 0 -220 c1 -249 8
-280 70 -309 59 -28 198 -14 251 26 14 11 7 43 -12 59 -11 9 -21 9 -42 -2 -44
-22 -110 -20 -132 3 -17 18 -19 40 -20 229 0 115 3 210 7 211 4 0 45 2 90 3
45 1 88 7 96 13 16 14 11 71 -7 73 -6 1 -50 1 -99 1 -48 1 -85 3 -82 6 3 3 0
11 -6 19 -9 10 -8 13 2 13 11 0 11 2 -1 10 -8 5 -10 10 -5 10 8 0 10 47 5 133
0 10 -19 8 -67 -10z"/>
<path d="M4178 1284 c-4 -3 -12 -7 -20 -8 -70 -14 -68 -11 -68 -102 0 -49 -4
-85 -10 -85 -5 -1 -13 -2 -17 -4 -5 -1 -21 -5 -38 -10 -40 -10 -55 -23 -55
-46 0 -14 8 -19 28 -20 15 -1 41 -2 57 -3 l30 -1 2 -210 c1 -116 3 -213 4
-217 1 -5 2 -11 3 -15 1 -5 5 -14 9 -20 5 -7 5 -13 1 -13 -16 0 33 -44 63 -56
40 -17 155 -18 171 -2 7 7 12 9 12 5 0 -9 63 22 72 36 3 6 0 16 -7 23 -7 8
-15 19 -17 26 -4 10 -11 10 -34 -1 -49 -22 -113 -25 -135 -5 -10 9 -16 21 -13
25 3 5 1 9 -3 9 -6 0 -10 381 -4 411 0 4 40 6 87 5 47 0 91 2 97 6 7 4 12 23
13 43 1 40 9 37 -116 37 l-85 1 1 98 c1 72 -2 99 -11 99 -6 0 -14 -3 -17 -6z"/>
<path d="M185 1110 c-3 -5 -13 -7 -22 -6 -10 2 -37 -3 -62 -11 -24 -7 -46 -11
-49 -8 -7 7 -42 -14 -42 -26 0 -10 21 -20 88 -40 l42 -12 0 -226 0 -226 -27
-12 c-16 -7 -43 -17 -61 -24 -20 -7 -32 -18 -32 -29 0 -16 13 -18 164 -18 168
0 202 6 178 30 -7 7 -16 13 -20 14 -22 2 -82 35 -83 46 -1 7 -2 135 -3 283
l-1 270 -32 2 c-18 1 -35 -2 -38 -7z"/>
<path d="M2510 1116 c-3 -2 -19 -6 -35 -9 -73 -11 -151 -32 -157 -41 -10 -15
0 -22 65 -40 31 -9 57 -20 58 -24 1 -10 1 -413 0 -435 -1 -10 -9 -20 -18 -24
-10 -3 -34 -13 -53 -21 -19 -8 -39 -14 -43 -13 -5 1 -7 -6 -5 -16 3 -16 18
-18 173 -18 148 0 170 2 173 16 2 11 -13 23 -51 38 -29 12 -54 27 -55 34 -7
62 -7 104 1 115 5 6 5 12 1 12 -11 0 -11 91 0 108 4 7 4 12 -1 12 -10 0 -10
91 1 108 4 7 4 12 -1 12 -4 0 -8 42 -8 92 0 86 -2 93 -20 96 -12 2 -23 1 -25
-2z"/>
<path d="M3790 1108 c-19 -4 -44 -10 -55 -12 -11 -3 -42 -9 -68 -14 -57 -11
-77 -26 -59 -44 6 -6 22 -12 34 -14 40 -4 78 -23 79 -39 1 -24 0 -117 -3 -155
-1 -20 1 -43 5 -52 3 -9 2 -30 -2 -46 -5 -16 -5 -36 0 -45 12 -20 -54 -88
-114 -119 -81 -41 -182 -19 -197 43 -3 13 -6 131 -5 262 0 267 7 247 -80 227
-22 -5 -53 -11 -70 -14 -67 -12 -84 -18 -89 -31 -3 -9 7 -18 32 -25 20 -6 44
-14 52 -17 8 -4 20 -7 25 -7 6 -1 11 -80 12 -211 3 -238 3 -235 15 -235 5 0 6
-5 3 -10 -10 -15 52 -66 96 -79 44 -13 189 -13 189 0 0 5 7 9 15 9 9 0 21 4
28 10 7 5 26 21 44 35 l32 26 7 -28 c4 -15 7 -36 6 -46 -1 -14 5 -17 26 -13
15 2 28 5 30 6 1 2 10 3 20 4 9 1 42 8 72 15 78 19 103 43 58 54 -13 4 -26 6
-31 6 -4 0 -20 7 -35 15 l-28 15 0 261 c1 144 -1 265 -4 269 -3 4 -21 4 -40
-1z"/>
<path d="M575 1094 c-33 -7 -78 -16 -100 -20 -22 -3 -44 -10 -49 -14 -10 -10
-1 -41 11 -38 13 3 98 -23 103 -32 3 -4 5 -103 4 -219 -1 -153 -4 -214 -14
-226 -7 -8 -16 -12 -21 -9 -5 3 -9 0 -9 -7 0 -7 -3 -10 -6 -6 -3 3 -20 -1 -37
-8 -33 -14 -46 -45 -19 -46 10 0 85 -1 169 -2 139 -2 152 0 157 16 3 14 -8 23
-50 42 l-54 24 0 174 0 174 28 29 c51 52 79 72 113 80 46 11 89 12 95 2 3 -5
9 -6 14 -3 5 3 21 -8 37 -23 l28 -29 0 -203 0 -203 -24 -9 c-56 -20 -91 -41
-91 -54 0 -16 -1 -16 200 -16 138 -1 145 0 148 19 2 15 -4 23 -25 28 -15 5
-30 9 -33 10 -3 1 -17 7 -31 14 l-26 13 0 212 c0 202 -1 215 -22 252 -63 113
-270 119 -382 12 l-29 -28 0 55 c0 62 4 60 -85 39z"/>
<path d="M1467 1098 c-162 -34 -226 -185 -121 -284 30 -28 112 -66 157 -73 4
0 21 -8 39 -17 74 -38 99 -91 67 -143 -11 -18 -24 -29 -29 -26 -6 3 -10 2 -10
-3 0 -10 -8 -12 -75 -15 -46 -3 -132 20 -120 31 2 2 -1 14 -7 26 -7 11 -11 24
-10 29 1 4 -2 7 -7 7 -5 0 -11 9 -14 19 -3 12 -12 19 -23 17 -16 -2 -18 -13
-19 -81 l-1 -78 45 -21 c35 -16 69 -21 146 -23 88 -2 106 1 150 22 66 32 97
75 103 141 8 91 -36 146 -151 191 -127 49 -156 65 -165 92 -22 67 26 115 115
113 98 -2 98 -2 127 -63 19 -40 32 -56 44 -55 14 2 17 16 19 80 l2 78 -34 14
c-62 26 -164 36 -228 22z"/>
<path d="M4716 1098 c-51 -11 -94 -36 -138 -80 -32 -32 -74 -97 -77 -120 -1
-5 -2 -10 -2 -13 -1 -3 -3 -9 -4 -15 -1 -5 -4 -13 -5 -17 -7 -21 -4 -163 3
-163 5 0 7 -6 4 -12 -5 -17 28 -93 53 -120 11 -12 20 -25 20 -28 0 -4 24 -20
53 -36 49 -27 59 -29 162 -29 117 0 160 13 229 69 l29 24 -25 27 c-25 26 -25
26 -61 9 -21 -10 -37 -21 -37 -24 0 -4 -6 -7 -12 -8 -22 -2 -42 -7 -54 -14
-21 -14 -139 -1 -172 18 -37 22 -82 101 -77 139 1 14 -1 25 -6 25 -4 0 -4 12
0 26 l7 26 224 2 224 1 6 25 c4 14 2 31 -3 38 -6 8 -6 12 2 12 7 0 9 5 4 13
-4 6 -9 17 -10 22 -1 6 -4 17 -6 25 -14 62 -48 107 -107 145 -55 35 -152 49
-224 33z m156 -99 c41 -21 64 -50 78 -98 6 -21 5 -33 -3 -38 -7 -4 -85 -7
-175 -8 l-164 0 5 25 c10 57 32 90 80 120 39 24 130 23 179 -1z"/>
</g>
</svg>
